<?xml version="1.0" encoding="UTF-8"?>
<svg xmlns="http://www.w3.org/2000/svg" xmlns:xlink="http://www.w3.org/1999/xlink" width="206pt" height="116pt" viewBox="0 0 206 116" version="1.1">
<g id="surface767">
<rect x="0" y="0" width="206" height="116" style="fill:rgb(100%,100%,100%);fill-opacity:1;stroke:none;"/>
<path style="fill:none;stroke-width:1;stroke-linecap:butt;stroke-linejoin:miter;stroke:rgb(0%,0%,0%);stroke-opacity:1;stroke-miterlimit:4;" d="M 54 -18 C 54 -8.058594 41.910156 0 27 0 C 12.089844 0 0 -8.058594 0 -18 C 0 -27.941406 12.089844 -36 27 -36 C 41.910156 -36 54 -27.941406 54 -18 Z M 54 -18 " transform="matrix(1,0,0,1,4,112)"/>
<path style=" stroke:none;fill-rule:nonzero;fill:rgb(0%,0%,0%);fill-opacity:1;" d="M 24.28125 88.15625 L 25.640625 88.15625 L 25.640625 97.003906 L 30.726562 97.003906 L 30.726562 98.199219 L 24.28125 98.199219 Z M 32.339844 91.269531 L 32.339844 90.324219 C 33.226562 90.238281 33.847656 90.09375 34.199219 89.890625 C 34.550781 89.6875 34.8125 89.207031 34.984375 88.449219 L 35.957031 88.449219 L 35.957031 98.199219 L 34.644531 98.199219 L 34.644531 91.269531 Z M 23.214844 87.417969 "/>
<path style="fill:none;stroke-width:1;stroke-linecap:butt;stroke-linejoin:miter;stroke:rgb(0%,0%,0%);stroke-opacity:1;stroke-miterlimit:4;" d="M 126 -18 C 126 -8.058594 113.910156 0 99 0 C 84.089844 0 72 -8.058594 72 -18 C 72 -27.941406 84.089844 -36 99 -36 C 113.910156 -36 126 -27.941406 126 -18 Z M 126 -18 " transform="matrix(1,0,0,1,4,112)"/>
<path style=" stroke:none;fill-rule:nonzero;fill:rgb(0%,0%,0%);fill-opacity:1;" d="M 96.28125 88.15625 L 97.640625 88.15625 L 97.640625 97.003906 L 102.726562 97.003906 L 102.726562 98.199219 L 96.28125 98.199219 Z M 103.4375 98.199219 C 103.484375 97.355469 103.65625 96.621094 103.960938 95.996094 C 104.265625 95.371094 104.855469 94.804688 105.734375 94.296875 L 107.046875 93.535156 C 107.632812 93.195312 108.046875 92.902344 108.285156 92.660156 C 108.65625 92.285156 108.84375 91.851562 108.84375 91.363281 C 108.84375 90.792969 108.671875 90.339844 108.332031 90.007812 C 107.992188 89.671875 107.535156 89.503906 106.964844 89.503906 C 106.121094 89.503906 105.539062 89.824219 105.214844 90.460938 C 105.042969 90.800781 104.945312 91.277344 104.929688 91.882812 L 103.675781 91.882812 C 103.691406 91.03125 103.847656 90.335938 104.148438 89.796875 C 104.679688 88.847656 105.621094 88.375 106.972656 88.375 C 108.09375 88.375 108.910156 88.679688 109.429688 89.285156 C 109.945312 89.890625 110.203125 90.566406 110.203125 91.308594 C 110.203125 92.09375 109.929688 92.761719 109.378906 93.316406 C 109.058594 93.640625 108.488281 94.035156 107.664062 94.496094 L 106.726562 95.011719 C 106.28125 95.257812 105.929688 95.496094 105.671875 95.71875 C 105.21875 96.113281 104.929688 96.554688 104.8125 97.035156 L 110.15625 97.035156 L 110.15625 98.199219 Z M 95.214844 87.417969 "/>
<path style="fill:none;stroke-width:1;stroke-linecap:butt;stroke-linejoin:miter;stroke:rgb(0%,0%,0%);stroke-opacity:1;stroke-miterlimit:4;" d="M 198 -18 C 198 -8.058594 185.910156 0 171 0 C 156.089844 0 144 -8.058594 144 -18 C 144 -27.941406 156.089844 -36 171 -36 C 185.910156 -36 198 -27.941406 198 -18 Z M 198 -18 " transform="matrix(1,0,0,1,4,112)"/>
<path style=" stroke:none;fill-rule:nonzero;fill:rgb(0%,0%,0%);fill-opacity:1;" d="M 168.28125 88.15625 L 169.640625 88.15625 L 169.640625 97.003906 L 174.726562 97.003906 L 174.726562 98.199219 L 168.28125 98.199219 Z M 178.636719 98.464844 C 177.480469 98.464844 176.640625 98.148438 176.117188 97.511719 C 175.59375 96.875 175.335938 96.101562 175.335938 95.191406 L 176.621094 95.191406 C 176.675781 95.824219 176.792969 96.285156 176.976562 96.574219 C 177.296875 97.089844 177.871094 97.34375 178.703125 97.34375 C 179.351562 97.34375 179.871094 97.171875 180.265625 96.824219 C 180.65625 96.480469 180.851562 96.03125 180.851562 95.484375 C 180.851562 94.808594 180.644531 94.339844 180.234375 94.070312 C 179.820312 93.800781 179.246094 93.667969 178.515625 93.667969 C 178.433594 93.667969 178.347656 93.667969 178.265625 93.671875 C 178.179688 93.671875 178.09375 93.675781 178.007812 93.679688 L 178.007812 92.59375 C 178.136719 92.605469 178.242188 92.617188 178.328125 92.621094 C 178.414062 92.625 178.507812 92.628906 178.609375 92.628906 C 179.070312 92.628906 179.449219 92.554688 179.742188 92.410156 C 180.261719 92.152344 180.523438 91.699219 180.523438 91.042969 C 180.523438 90.554688 180.351562 90.179688 180.003906 89.914062 C 179.65625 89.648438 179.253906 89.519531 178.792969 89.519531 C 177.972656 89.519531 177.40625 89.792969 177.09375 90.339844 C 176.917969 90.640625 176.820312 91.066406 176.796875 91.621094 L 175.582031 91.621094 C 175.582031 90.894531 175.726562 90.273438 176.019531 89.761719 C 176.519531 88.851562 177.402344 88.394531 178.664062 88.394531 C 179.664062 88.394531 180.433594 88.617188 180.980469 89.0625 C 181.527344 89.507812 181.800781 90.152344 181.800781 90.996094 C 181.800781 91.597656 181.640625 92.082031 181.316406 92.457031 C 181.117188 92.691406 180.855469 92.871094 180.539062 93.003906 C 181.054688 93.144531 181.453125 93.417969 181.742188 93.820312 C 182.03125 94.222656 182.179688 94.71875 182.179688 95.300781 C 182.179688 96.234375 181.871094 96.996094 181.253906 97.582031 C 180.640625 98.171875 179.765625 98.464844 178.636719 98.464844 Z M 167.214844 87.417969 "/>
<path style="fill:none;stroke-width:1;stroke-linecap:butt;stroke-linejoin:miter;stroke:rgb(0%,0%,0%);stroke-opacity:1;stroke-miterlimit:4;" d="M 126 -90 C 126 -80.058594 113.910156 -72 99 -72 C 84.089844 -72 72 -80.058594 72 -90 C 72 -99.941406 84.089844 -108 99 -108 C 113.910156 -108 126 -99.941406 126 -90 Z M 126 -90 " transform="matrix(1,0,0,1,4,112)"/>
<path style=" stroke:none;fill-rule:nonzero;fill:rgb(0%,0%,0%);fill-opacity:1;" d="M 99.527344 16.15625 L 104.046875 16.15625 C 104.941406 16.15625 105.660156 16.410156 106.207031 16.914062 C 106.753906 17.417969 107.027344 18.125 107.027344 19.035156 C 107.027344 19.820312 106.785156 20.5 106.296875 21.082031 C 105.808594 21.664062 105.058594 21.953125 104.046875 21.953125 L 100.886719 21.953125 L 100.886719 26.199219 L 99.527344 26.199219 Z M 105.652344 19.042969 C 105.652344 18.304688 105.378906 17.800781 104.832031 17.539062 C 104.53125 17.398438 104.121094 17.324219 103.597656 17.324219 L 100.886719 17.324219 L 100.886719 20.804688 L 103.597656 20.804688 C 104.207031 20.804688 104.703125 20.675781 105.082031 20.417969 C 105.464844 20.15625 105.652344 19.699219 105.652344 19.042969 Z M 98.332031 15.417969 "/>
<path style="fill:none;stroke-width:1;stroke-linecap:butt;stroke-linejoin:miter;stroke:rgb(0%,0%,0%);stroke-opacity:1;stroke-miterlimit:4;" d="M 83.730469 -74.730469 C 73.804688 -64.804688 60.683594 -51.683594 49.5625 -40.5625 " transform="matrix(1,0,0,1,4,112)"/>
<path style="fill-rule:nonzero;fill:rgb(0%,0%,0%);fill-opacity:1;stroke-width:1;stroke-linecap:butt;stroke-linejoin:miter;stroke:rgb(0%,0%,0%);stroke-opacity:1;stroke-miterlimit:4;" d="M 51.792969 -37.84375 L 42.246094 -33.246094 L 46.84375 -42.792969 Z M 51.792969 -37.84375 " transform="matrix(1,0,0,1,4,112)"/>
<path style="fill:none;stroke-width:1;stroke-linecap:butt;stroke-linejoin:miter;stroke:rgb(0%,0%,0%);stroke-opacity:1;stroke-miterlimit:4;" d="M 99 -71.832031 C 99 -64.132812 99 -54.972656 99 -46.417969 " transform="matrix(1,0,0,1,4,112)"/>
<path style="fill-rule:nonzero;fill:rgb(0%,0%,0%);fill-opacity:1;stroke-width:1;stroke-linecap:butt;stroke-linejoin:miter;stroke:rgb(0%,0%,0%);stroke-opacity:1;stroke-miterlimit:4;" d="M 102.5 -46.414062 L 99 -36.414062 L 95.5 -46.414062 Z M 102.5 -46.414062 " transform="matrix(1,0,0,1,4,112)"/>
<path style="fill:none;stroke-width:1;stroke-linecap:butt;stroke-linejoin:miter;stroke:rgb(0%,0%,0%);stroke-opacity:1;stroke-miterlimit:4;" d="M 114.269531 -74.730469 C 124.195312 -64.804688 137.316406 -51.683594 148.4375 -40.5625 " transform="matrix(1,0,0,1,4,112)"/>
<path style="fill-rule:nonzero;fill:rgb(0%,0%,0%);fill-opacity:1;stroke-width:1;stroke-linecap:butt;stroke-linejoin:miter;stroke:rgb(0%,0%,0%);stroke-opacity:1;stroke-miterlimit:4;" d="M 151.15625 -42.792969 L 155.753906 -33.246094 L 146.207031 -37.84375 Z M 151.15625 -42.792969 " transform="matrix(1,0,0,1,4,112)"/>
</g>
</svg>
