<?xml version="1.0" encoding="UTF-8"?>
<svg xmlns="http://www.w3.org/2000/svg" xmlns:xlink="http://www.w3.org/1999/xlink" width="638pt" height="188pt" viewBox="0 0 638 188" version="1.1">
<g id="surface579">
<rect x="0" y="0" width="638" height="188" style="fill:rgb(100%,100%,100%);fill-opacity:1;stroke:none;"/>
<path style="fill:none;stroke-width:1;stroke-linecap:butt;stroke-linejoin:miter;stroke:rgb(0%,0%,0%);stroke-opacity:1;stroke-miterlimit:4;" d="M 54 -36 L 0 -36 L 0 0 L 54 0 Z M 54 -36 " transform="matrix(1,0,0,1,4,184)"/>
<path style=" stroke:none;fill-rule:nonzero;fill:rgb(0%,0%,0%);fill-opacity:1;" d="M 23.808594 162.878906 L 25.402344 162.878906 L 27.085938 165.457031 L 28.785156 162.878906 L 30.285156 162.910156 L 27.816406 166.445312 L 30.394531 170.199219 L 28.820312 170.199219 L 27.003906 167.449219 L 25.238281 170.199219 L 23.679688 170.199219 L 26.257812 166.445312 Z M 31.945312 163.269531 L 31.945312 162.324219 C 32.832031 162.238281 33.453125 162.09375 33.804688 161.890625 C 34.15625 161.6875 34.417969 161.207031 34.589844 160.449219 L 35.5625 160.449219 L 35.5625 170.199219 L 34.25 170.199219 L 34.25 163.269531 Z M 23.605469 159.417969 "/>
<path style="fill:none;stroke-width:1;stroke-linecap:butt;stroke-linejoin:miter;stroke:rgb(0%,0%,0%);stroke-opacity:1;stroke-miterlimit:4;" d="M 126 -36 L 72 -36 L 72 0 L 126 0 Z M 126 -36 " transform="matrix(1,0,0,1,4,184)"/>
<path style=" stroke:none;fill-rule:nonzero;fill:rgb(0%,0%,0%);fill-opacity:1;" d="M 95.808594 162.878906 L 97.402344 162.878906 L 99.085938 165.457031 L 100.785156 162.878906 L 102.285156 162.910156 L 99.816406 166.445312 L 102.394531 170.199219 L 100.820312 170.199219 L 99.003906 167.449219 L 97.238281 170.199219 L 95.679688 170.199219 L 98.257812 166.445312 Z M 103.042969 170.199219 C 103.089844 169.355469 103.261719 168.621094 103.566406 167.996094 C 103.871094 167.371094 104.460938 166.804688 105.339844 166.296875 L 106.652344 165.535156 C 107.238281 165.195312 107.652344 164.902344 107.890625 164.660156 C 108.261719 164.285156 108.449219 163.851562 108.449219 163.363281 C 108.449219 162.792969 108.277344 162.339844 107.9375 162.007812 C 107.597656 161.671875 107.140625 161.503906 106.570312 161.503906 C 105.726562 161.503906 105.144531 161.824219 104.820312 162.460938 C 104.648438 162.800781 104.550781 163.277344 104.535156 163.882812 L 103.28125 163.882812 C 103.296875 163.03125 103.453125 162.335938 103.753906 161.796875 C 104.285156 160.847656 105.226562 160.375 106.578125 160.375 C 107.699219 160.375 108.515625 160.679688 109.035156 161.285156 C 109.550781 161.890625 109.808594 162.566406 109.808594 163.308594 C 109.808594 164.09375 109.535156 164.761719 108.984375 165.316406 C 108.664062 165.640625 108.09375 166.035156 107.269531 166.496094 L 106.332031 167.011719 C 105.886719 167.257812 105.535156 167.496094 105.277344 167.71875 C 104.824219 168.113281 104.535156 168.554688 104.417969 169.035156 L 109.761719 169.035156 L 109.761719 170.199219 Z M 95.605469 159.417969 "/>
<path style="fill:none;stroke-width:1;stroke-linecap:butt;stroke-linejoin:miter;stroke:rgb(0%,0%,0%);stroke-opacity:1;stroke-miterlimit:4;" d="M 198 -36 L 144 -36 L 144 0 L 198 0 Z M 198 -36 " transform="matrix(1,0,0,1,4,184)"/>
<path style=" stroke:none;fill-rule:nonzero;fill:rgb(0%,0%,0%);fill-opacity:1;" d="M 167.808594 162.878906 L 169.402344 162.878906 L 171.085938 165.457031 L 172.785156 162.878906 L 174.285156 162.910156 L 171.816406 166.445312 L 174.394531 170.199219 L 172.820312 170.199219 L 171.003906 167.449219 L 169.238281 170.199219 L 167.679688 170.199219 L 170.257812 166.445312 Z M 178.242188 170.464844 C 177.085938 170.464844 176.246094 170.148438 175.722656 169.511719 C 175.199219 168.875 174.941406 168.101562 174.941406 167.191406 L 176.226562 167.191406 C 176.28125 167.824219 176.398438 168.285156 176.582031 168.574219 C 176.902344 169.089844 177.476562 169.34375 178.308594 169.34375 C 178.957031 169.34375 179.476562 169.171875 179.871094 168.824219 C 180.261719 168.480469 180.457031 168.03125 180.457031 167.484375 C 180.457031 166.808594 180.25 166.339844 179.839844 166.070312 C 179.425781 165.800781 178.851562 165.667969 178.121094 165.667969 C 178.039062 165.667969 177.953125 165.667969 177.871094 165.671875 C 177.785156 165.671875 177.699219 165.675781 177.613281 165.679688 L 177.613281 164.59375 C 177.742188 164.605469 177.847656 164.617188 177.933594 164.621094 C 178.019531 164.625 178.113281 164.628906 178.214844 164.628906 C 178.675781 164.628906 179.054688 164.554688 179.347656 164.410156 C 179.867188 164.152344 180.128906 163.699219 180.128906 163.042969 C 180.128906 162.554688 179.957031 162.179688 179.609375 161.914062 C 179.261719 161.648438 178.859375 161.519531 178.398438 161.519531 C 177.578125 161.519531 177.011719 161.792969 176.699219 162.339844 C 176.523438 162.640625 176.425781 163.066406 176.402344 163.621094 L 175.1875 163.621094 C 175.1875 162.894531 175.332031 162.273438 175.625 161.761719 C 176.125 160.851562 177.007812 160.394531 178.269531 160.394531 C 179.269531 160.394531 180.039062 160.617188 180.585938 161.0625 C 181.132812 161.507812 181.40625 162.152344 181.40625 162.996094 C 181.40625 163.597656 181.246094 164.082031 180.921875 164.457031 C 180.722656 164.691406 180.460938 164.871094 180.144531 165.003906 C 180.660156 165.144531 181.058594 165.417969 181.347656 165.820312 C 181.636719 166.222656 181.785156 166.71875 181.785156 167.300781 C 181.785156 168.234375 181.476562 168.996094 180.859375 169.582031 C 180.246094 170.171875 179.371094 170.464844 178.242188 170.464844 Z M 167.605469 159.417969 "/>
<path style="fill:none;stroke-width:1;stroke-linecap:butt;stroke-linejoin:miter;stroke:rgb(0%,0%,0%);stroke-opacity:1;stroke-miterlimit:4;" d="M 270 -36 L 216 -36 L 216 0 L 270 0 Z M 270 -36 " transform="matrix(1,0,0,1,4,184)"/>
<path style=" stroke:none;fill-rule:nonzero;fill:rgb(0%,0%,0%);fill-opacity:1;" d="M 245.082031 162.878906 L 246.441406 162.878906 C 246.269531 163.347656 245.882812 164.417969 245.285156 166.089844 C 244.839844 167.347656 244.464844 168.375 244.164062 169.167969 C 243.453125 171.035156 242.953125 172.175781 242.660156 172.585938 C 242.371094 172.996094 241.867188 173.199219 241.15625 173.199219 C 240.984375 173.199219 240.851562 173.191406 240.757812 173.179688 C 240.664062 173.167969 240.550781 173.140625 240.410156 173.105469 L 240.410156 171.984375 C 240.625 172.042969 240.78125 172.078125 240.878906 172.09375 C 240.972656 172.105469 241.058594 172.113281 241.128906 172.113281 C 241.355469 172.113281 241.523438 172.074219 241.632812 172 C 241.738281 171.925781 241.828125 171.832031 241.902344 171.722656 C 241.925781 171.6875 242.007812 171.5 242.148438 171.164062 C 242.289062 170.824219 242.390625 170.574219 242.457031 170.410156 L 239.75 162.878906 L 241.144531 162.878906 L 243.105469 168.839844 Z M 247.945312 163.269531 L 247.945312 162.324219 C 248.832031 162.238281 249.453125 162.09375 249.804688 161.890625 C 250.15625 161.6875 250.417969 161.207031 250.589844 160.449219 L 251.5625 160.449219 L 251.5625 170.199219 L 250.25 170.199219 L 250.25 163.269531 Z M 239.605469 159.417969 "/>
<path style="fill:none;stroke-width:1;stroke-linecap:butt;stroke-linejoin:miter;stroke:rgb(0%,0%,0%);stroke-opacity:1;stroke-miterlimit:4;" d="M 342 -36 L 288 -36 L 288 0 L 342 0 Z M 342 -36 " transform="matrix(1,0,0,1,4,184)"/>
<path style=" stroke:none;fill-rule:nonzero;fill:rgb(0%,0%,0%);fill-opacity:1;" d="M 317.082031 162.878906 L 318.441406 162.878906 C 318.269531 163.347656 317.882812 164.417969 317.285156 166.089844 C 316.839844 167.347656 316.464844 168.375 316.164062 169.167969 C 315.453125 171.035156 314.953125 172.175781 314.660156 172.585938 C 314.371094 172.996094 313.867188 173.199219 313.15625 173.199219 C 312.984375 173.199219 312.851562 173.191406 312.757812 173.179688 C 312.664062 173.167969 312.550781 173.140625 312.410156 173.105469 L 312.410156 171.984375 C 312.625 172.042969 312.78125 172.078125 312.878906 172.09375 C 312.972656 172.105469 313.058594 172.113281 313.128906 172.113281 C 313.355469 172.113281 313.523438 172.074219 313.632812 172 C 313.738281 171.925781 313.828125 171.832031 313.902344 171.722656 C 313.925781 171.6875 314.007812 171.5 314.148438 171.164062 C 314.289062 170.824219 314.390625 170.574219 314.457031 170.410156 L 311.75 162.878906 L 313.144531 162.878906 L 315.105469 168.839844 Z M 319.042969 170.199219 C 319.089844 169.355469 319.261719 168.621094 319.566406 167.996094 C 319.871094 167.371094 320.460938 166.804688 321.339844 166.296875 L 322.652344 165.535156 C 323.238281 165.195312 323.652344 164.902344 323.890625 164.660156 C 324.261719 164.285156 324.449219 163.851562 324.449219 163.363281 C 324.449219 162.792969 324.277344 162.339844 323.9375 162.007812 C 323.597656 161.671875 323.140625 161.503906 322.570312 161.503906 C 321.726562 161.503906 321.144531 161.824219 320.820312 162.460938 C 320.648438 162.800781 320.550781 163.277344 320.535156 163.882812 L 319.28125 163.882812 C 319.296875 163.03125 319.453125 162.335938 319.753906 161.796875 C 320.285156 160.847656 321.226562 160.375 322.578125 160.375 C 323.699219 160.375 324.515625 160.679688 325.035156 161.285156 C 325.550781 161.890625 325.808594 162.566406 325.808594 163.308594 C 325.808594 164.09375 325.535156 164.761719 324.984375 165.316406 C 324.664062 165.640625 324.09375 166.035156 323.269531 166.496094 L 322.332031 167.011719 C 321.886719 167.257812 321.535156 167.496094 321.277344 167.71875 C 320.824219 168.113281 320.535156 168.554688 320.417969 169.035156 L 325.761719 169.035156 L 325.761719 170.199219 Z M 311.605469 159.417969 "/>
<path style="fill:none;stroke-width:1;stroke-linecap:butt;stroke-linejoin:miter;stroke:rgb(0%,0%,0%);stroke-opacity:1;stroke-miterlimit:4;" d="M 414 -36 L 360 -36 L 360 0 L 414 0 Z M 414 -36 " transform="matrix(1,0,0,1,4,184)"/>
<path style=" stroke:none;fill-rule:nonzero;fill:rgb(0%,0%,0%);fill-opacity:1;" d="M 389.082031 162.878906 L 390.441406 162.878906 C 390.269531 163.347656 389.882812 164.417969 389.285156 166.089844 C 388.839844 167.347656 388.464844 168.375 388.164062 169.167969 C 387.453125 171.035156 386.953125 172.175781 386.660156 172.585938 C 386.371094 172.996094 385.867188 173.199219 385.15625 173.199219 C 384.984375 173.199219 384.851562 173.191406 384.757812 173.179688 C 384.664062 173.167969 384.550781 173.140625 384.410156 173.105469 L 384.410156 171.984375 C 384.625 172.042969 384.78125 172.078125 384.878906 172.09375 C 384.972656 172.105469 385.058594 172.113281 385.128906 172.113281 C 385.355469 172.113281 385.523438 172.074219 385.632812 172 C 385.738281 171.925781 385.828125 171.832031 385.902344 171.722656 C 385.925781 171.6875 386.007812 171.5 386.148438 171.164062 C 386.289062 170.824219 386.390625 170.574219 386.457031 170.410156 L 383.75 162.878906 L 385.144531 162.878906 L 387.105469 168.839844 Z M 394.242188 170.464844 C 393.085938 170.464844 392.246094 170.148438 391.722656 169.511719 C 391.199219 168.875 390.941406 168.101562 390.941406 167.191406 L 392.226562 167.191406 C 392.28125 167.824219 392.398438 168.285156 392.582031 168.574219 C 392.902344 169.089844 393.476562 169.34375 394.308594 169.34375 C 394.957031 169.34375 395.476562 169.171875 395.871094 168.824219 C 396.261719 168.480469 396.457031 168.03125 396.457031 167.484375 C 396.457031 166.808594 396.25 166.339844 395.839844 166.070312 C 395.425781 165.800781 394.851562 165.667969 394.121094 165.667969 C 394.039062 165.667969 393.953125 165.667969 393.871094 165.671875 C 393.785156 165.671875 393.699219 165.675781 393.613281 165.679688 L 393.613281 164.59375 C 393.742188 164.605469 393.847656 164.617188 393.933594 164.621094 C 394.019531 164.625 394.113281 164.628906 394.214844 164.628906 C 394.675781 164.628906 395.054688 164.554688 395.347656 164.410156 C 395.867188 164.152344 396.128906 163.699219 396.128906 163.042969 C 396.128906 162.554688 395.957031 162.179688 395.609375 161.914062 C 395.261719 161.648438 394.859375 161.519531 394.398438 161.519531 C 393.578125 161.519531 393.011719 161.792969 392.699219 162.339844 C 392.523438 162.640625 392.425781 163.066406 392.402344 163.621094 L 391.1875 163.621094 C 391.1875 162.894531 391.332031 162.273438 391.625 161.761719 C 392.125 160.851562 393.007812 160.394531 394.269531 160.394531 C 395.269531 160.394531 396.039062 160.617188 396.585938 161.0625 C 397.132812 161.507812 397.40625 162.152344 397.40625 162.996094 C 397.40625 163.597656 397.246094 164.082031 396.921875 164.457031 C 396.722656 164.691406 396.460938 164.871094 396.144531 165.003906 C 396.660156 165.144531 397.058594 165.417969 397.347656 165.820312 C 397.636719 166.222656 397.785156 166.71875 397.785156 167.300781 C 397.785156 168.234375 397.476562 168.996094 396.859375 169.582031 C 396.246094 170.171875 395.371094 170.464844 394.242188 170.464844 Z M 383.605469 159.417969 "/>
<path style="fill:none;stroke-width:1;stroke-linecap:butt;stroke-linejoin:miter;stroke:rgb(0%,0%,0%);stroke-opacity:1;stroke-miterlimit:4;" d="M 486 -36 L 432 -36 L 432 0 L 486 0 Z M 486 -36 " transform="matrix(1,0,0,1,4,184)"/>
<path style=" stroke:none;fill-rule:nonzero;fill:rgb(0%,0%,0%);fill-opacity:1;" d="M 455.960938 169.230469 L 460.300781 163.980469 L 456.28125 163.980469 L 456.28125 162.878906 L 461.957031 162.878906 L 461.957031 163.882812 L 457.644531 169.097656 L 462.085938 169.097656 L 462.085938 170.199219 L 455.960938 170.199219 Z M 463.945312 163.269531 L 463.945312 162.324219 C 464.832031 162.238281 465.453125 162.09375 465.804688 161.890625 C 466.15625 161.6875 466.417969 161.207031 466.589844 160.449219 L 467.5625 160.449219 L 467.5625 170.199219 L 466.25 170.199219 L 466.25 163.269531 Z M 455.605469 159.417969 "/>
<path style="fill:none;stroke-width:1;stroke-linecap:butt;stroke-linejoin:miter;stroke:rgb(0%,0%,0%);stroke-opacity:1;stroke-miterlimit:4;" d="M 558 -36 L 504 -36 L 504 0 L 558 0 Z M 558 -36 " transform="matrix(1,0,0,1,4,184)"/>
<path style=" stroke:none;fill-rule:nonzero;fill:rgb(0%,0%,0%);fill-opacity:1;" d="M 527.960938 169.230469 L 532.300781 163.980469 L 528.28125 163.980469 L 528.28125 162.878906 L 533.957031 162.878906 L 533.957031 163.882812 L 529.644531 169.097656 L 534.085938 169.097656 L 534.085938 170.199219 L 527.960938 170.199219 Z M 535.042969 170.199219 C 535.089844 169.355469 535.261719 168.621094 535.566406 167.996094 C 535.871094 167.371094 536.460938 166.804688 537.339844 166.296875 L 538.652344 165.535156 C 539.238281 165.195312 539.652344 164.902344 539.890625 164.660156 C 540.261719 164.285156 540.449219 163.851562 540.449219 163.363281 C 540.449219 162.792969 540.277344 162.339844 539.9375 162.007812 C 539.597656 161.671875 539.140625 161.503906 538.570312 161.503906 C 537.726562 161.503906 537.144531 161.824219 536.820312 162.460938 C 536.648438 162.800781 536.550781 163.277344 536.535156 163.882812 L 535.28125 163.882812 C 535.296875 163.03125 535.453125 162.335938 535.753906 161.796875 C 536.285156 160.847656 537.226562 160.375 538.578125 160.375 C 539.699219 160.375 540.515625 160.679688 541.035156 161.285156 C 541.550781 161.890625 541.808594 162.566406 541.808594 163.308594 C 541.808594 164.09375 541.535156 164.761719 540.984375 165.316406 C 540.664062 165.640625 540.09375 166.035156 539.269531 166.496094 L 538.332031 167.011719 C 537.886719 167.257812 537.535156 167.496094 537.277344 167.71875 C 536.824219 168.113281 536.535156 168.554688 536.417969 169.035156 L 541.761719 169.035156 L 541.761719 170.199219 Z M 527.605469 159.417969 "/>
<path style="fill:none;stroke-width:1;stroke-linecap:butt;stroke-linejoin:miter;stroke:rgb(0%,0%,0%);stroke-opacity:1;stroke-miterlimit:4;" d="M 630 -36 L 576 -36 L 576 0 L 630 0 Z M 630 -36 " transform="matrix(1,0,0,1,4,184)"/>
<path style=" stroke:none;fill-rule:nonzero;fill:rgb(0%,0%,0%);fill-opacity:1;" d="M 599.960938 169.230469 L 604.300781 163.980469 L 600.28125 163.980469 L 600.28125 162.878906 L 605.957031 162.878906 L 605.957031 163.882812 L 601.644531 169.097656 L 606.085938 169.097656 L 606.085938 170.199219 L 599.960938 170.199219 Z M 610.242188 170.464844 C 609.085938 170.464844 608.246094 170.148438 607.722656 169.511719 C 607.199219 168.875 606.941406 168.101562 606.941406 167.191406 L 608.226562 167.191406 C 608.28125 167.824219 608.398438 168.285156 608.582031 168.574219 C 608.902344 169.089844 609.476562 169.34375 610.308594 169.34375 C 610.957031 169.34375 611.476562 169.171875 611.871094 168.824219 C 612.261719 168.480469 612.457031 168.03125 612.457031 167.484375 C 612.457031 166.808594 612.25 166.339844 611.839844 166.070312 C 611.425781 165.800781 610.851562 165.667969 610.121094 165.667969 C 610.039062 165.667969 609.953125 165.667969 609.871094 165.671875 C 609.785156 165.671875 609.699219 165.675781 609.613281 165.679688 L 609.613281 164.59375 C 609.742188 164.605469 609.847656 164.617188 609.933594 164.621094 C 610.019531 164.625 610.113281 164.628906 610.214844 164.628906 C 610.675781 164.628906 611.054688 164.554688 611.347656 164.410156 C 611.867188 164.152344 612.128906 163.699219 612.128906 163.042969 C 612.128906 162.554688 611.957031 162.179688 611.609375 161.914062 C 611.261719 161.648438 610.859375 161.519531 610.398438 161.519531 C 609.578125 161.519531 609.011719 161.792969 608.699219 162.339844 C 608.523438 162.640625 608.425781 163.066406 608.402344 163.621094 L 607.1875 163.621094 C 607.1875 162.894531 607.332031 162.273438 607.625 161.761719 C 608.125 160.851562 609.007812 160.394531 610.269531 160.394531 C 611.269531 160.394531 612.039062 160.617188 612.585938 161.0625 C 613.132812 161.507812 613.40625 162.152344 613.40625 162.996094 C 613.40625 163.597656 613.246094 164.082031 612.921875 164.457031 C 612.722656 164.691406 612.460938 164.871094 612.144531 165.003906 C 612.660156 165.144531 613.058594 165.417969 613.347656 165.820312 C 613.636719 166.222656 613.785156 166.71875 613.785156 167.300781 C 613.785156 168.234375 613.476562 168.996094 612.859375 169.582031 C 612.246094 170.171875 611.371094 170.464844 610.242188 170.464844 Z M 599.605469 159.417969 "/>
<path style="fill:none;stroke-width:1;stroke-linecap:butt;stroke-linejoin:miter;stroke:rgb(0%,0%,0%);stroke-opacity:1;stroke-miterlimit:4;" d="M 162 -90 C 162 -80.058594 149.910156 -72 135 -72 C 120.089844 -72 108 -80.058594 108 -90 C 108 -99.941406 120.089844 -108 135 -108 C 149.910156 -108 162 -99.941406 162 -90 Z M 162 -90 " transform="matrix(1,0,0,1,4,184)"/>
<path style=" stroke:none;fill-rule:nonzero;fill:rgb(0%,0%,0%);fill-opacity:1;" d="M 132.28125 88.15625 L 133.640625 88.15625 L 133.640625 97.003906 L 138.726562 97.003906 L 138.726562 98.199219 L 132.28125 98.199219 Z M 140.339844 91.269531 L 140.339844 90.324219 C 141.226562 90.238281 141.847656 90.09375 142.199219 89.890625 C 142.550781 89.6875 142.8125 89.207031 142.984375 88.449219 L 143.957031 88.449219 L 143.957031 98.199219 L 142.644531 98.199219 L 142.644531 91.269531 Z M 131.214844 87.417969 "/>
<path style="fill:none;stroke-width:1;stroke-linecap:butt;stroke-linejoin:miter;stroke:rgb(0%,0%,0%);stroke-opacity:1;stroke-miterlimit:4;" d="M 115.691406 -77.128906 C 100.988281 -67.324219 80.332031 -53.554688 62.65625 -41.769531 " transform="matrix(1,0,0,1,4,184)"/>
<path style="fill-rule:nonzero;fill:rgb(0%,0%,0%);fill-opacity:1;stroke-width:1;stroke-linecap:butt;stroke-linejoin:miter;stroke:rgb(0%,0%,0%);stroke-opacity:1;stroke-miterlimit:4;" d="M 64.515625 -38.804688 L 54.253906 -36.171875 L 60.632812 -44.628906 Z M 64.515625 -38.804688 " transform="matrix(1,0,0,1,4,184)"/>
<path style="fill:none;stroke-width:1;stroke-linecap:butt;stroke-linejoin:miter;stroke:rgb(0%,0%,0%);stroke-opacity:1;stroke-miterlimit:4;" d="M 126.285156 -72.570312 C 122.175781 -64.355469 117.179688 -54.359375 112.589844 -45.183594 " transform="matrix(1,0,0,1,4,184)"/>
<path style="fill-rule:nonzero;fill:rgb(0%,0%,0%);fill-opacity:1;stroke-width:1;stroke-linecap:butt;stroke-linejoin:miter;stroke:rgb(0%,0%,0%);stroke-opacity:1;stroke-miterlimit:4;" d="M 115.613281 -43.398438 L 108.011719 -36.019531 L 109.351562 -46.53125 Z M 115.613281 -43.398438 " transform="matrix(1,0,0,1,4,184)"/>
<path style="fill:none;stroke-width:1;stroke-linecap:butt;stroke-linejoin:miter;stroke:rgb(0%,0%,0%);stroke-opacity:1;stroke-miterlimit:4;" d="M 143.714844 -72.570312 C 147.824219 -64.355469 152.820312 -54.359375 157.410156 -45.183594 " transform="matrix(1,0,0,1,4,184)"/>
<path style="fill-rule:nonzero;fill:rgb(0%,0%,0%);fill-opacity:1;stroke-width:1;stroke-linecap:butt;stroke-linejoin:miter;stroke:rgb(0%,0%,0%);stroke-opacity:1;stroke-miterlimit:4;" d="M 160.648438 -46.53125 L 161.988281 -36.019531 L 154.386719 -43.398438 Z M 160.648438 -46.53125 " transform="matrix(1,0,0,1,4,184)"/>
<path style="fill:none;stroke-width:1;stroke-linecap:butt;stroke-linejoin:miter;stroke:rgb(0%,0%,0%);stroke-opacity:1;stroke-miterlimit:4;" d="M 342 -90 C 342 -80.058594 329.910156 -72 315 -72 C 300.089844 -72 288 -80.058594 288 -90 C 288 -99.941406 300.089844 -108 315 -108 C 329.910156 -108 342 -99.941406 342 -90 Z M 342 -90 " transform="matrix(1,0,0,1,4,184)"/>
<path style=" stroke:none;fill-rule:nonzero;fill:rgb(0%,0%,0%);fill-opacity:1;" d="M 312.28125 88.15625 L 313.640625 88.15625 L 313.640625 97.003906 L 318.726562 97.003906 L 318.726562 98.199219 L 312.28125 98.199219 Z M 319.4375 98.199219 C 319.484375 97.355469 319.65625 96.621094 319.960938 95.996094 C 320.265625 95.371094 320.855469 94.804688 321.734375 94.296875 L 323.046875 93.535156 C 323.632812 93.195312 324.046875 92.902344 324.285156 92.660156 C 324.65625 92.285156 324.84375 91.851562 324.84375 91.363281 C 324.84375 90.792969 324.671875 90.339844 324.332031 90.007812 C 323.992188 89.671875 323.535156 89.503906 322.964844 89.503906 C 322.121094 89.503906 321.539062 89.824219 321.214844 90.460938 C 321.042969 90.800781 320.945312 91.277344 320.929688 91.882812 L 319.675781 91.882812 C 319.691406 91.03125 319.847656 90.335938 320.148438 89.796875 C 320.679688 88.847656 321.621094 88.375 322.972656 88.375 C 324.09375 88.375 324.910156 88.679688 325.429688 89.285156 C 325.945312 89.890625 326.203125 90.566406 326.203125 91.308594 C 326.203125 92.09375 325.929688 92.761719 325.378906 93.316406 C 325.058594 93.640625 324.488281 94.035156 323.664062 94.496094 L 322.726562 95.011719 C 322.28125 95.257812 321.929688 95.496094 321.671875 95.71875 C 321.21875 96.113281 320.929688 96.554688 320.8125 97.035156 L 326.15625 97.035156 L 326.15625 98.199219 Z M 311.214844 87.417969 "/>
<path style="fill:none;stroke-width:1;stroke-linecap:butt;stroke-linejoin:miter;stroke:rgb(0%,0%,0%);stroke-opacity:1;stroke-miterlimit:4;" d="M 299.730469 -74.730469 C 290.628906 -65.628906 278.847656 -53.847656 268.378906 -43.378906 " transform="matrix(1,0,0,1,4,184)"/>
<path style="fill-rule:nonzero;fill:rgb(0%,0%,0%);fill-opacity:1;stroke-width:1;stroke-linecap:butt;stroke-linejoin:miter;stroke:rgb(0%,0%,0%);stroke-opacity:1;stroke-miterlimit:4;" d="M 270.59375 -40.644531 L 261.046875 -36.046875 L 265.644531 -45.59375 Z M 270.59375 -40.644531 " transform="matrix(1,0,0,1,4,184)"/>
<path style="fill:none;stroke-width:1;stroke-linecap:butt;stroke-linejoin:miter;stroke:rgb(0%,0%,0%);stroke-opacity:1;stroke-miterlimit:4;" d="M 315 -71.832031 C 315 -64.132812 315 -54.972656 315 -46.417969 " transform="matrix(1,0,0,1,4,184)"/>
<path style="fill-rule:nonzero;fill:rgb(0%,0%,0%);fill-opacity:1;stroke-width:1;stroke-linecap:butt;stroke-linejoin:miter;stroke:rgb(0%,0%,0%);stroke-opacity:1;stroke-miterlimit:4;" d="M 318.5 -46.414062 L 315 -36.414062 L 311.5 -46.414062 Z M 318.5 -46.414062 " transform="matrix(1,0,0,1,4,184)"/>
<path style="fill:none;stroke-width:1;stroke-linecap:butt;stroke-linejoin:miter;stroke:rgb(0%,0%,0%);stroke-opacity:1;stroke-miterlimit:4;" d="M 330.269531 -74.730469 C 339.371094 -65.628906 351.152344 -53.847656 361.621094 -43.378906 " transform="matrix(1,0,0,1,4,184)"/>
<path style="fill-rule:nonzero;fill:rgb(0%,0%,0%);fill-opacity:1;stroke-width:1;stroke-linecap:butt;stroke-linejoin:miter;stroke:rgb(0%,0%,0%);stroke-opacity:1;stroke-miterlimit:4;" d="M 364.355469 -45.59375 L 368.953125 -36.046875 L 359.40625 -40.644531 Z M 364.355469 -45.59375 " transform="matrix(1,0,0,1,4,184)"/>
<path style="fill:none;stroke-width:1;stroke-linecap:butt;stroke-linejoin:miter;stroke:rgb(0%,0%,0%);stroke-opacity:1;stroke-miterlimit:4;" d="M 522 -90 C 522 -80.058594 509.910156 -72 495 -72 C 480.089844 -72 468 -80.058594 468 -90 C 468 -99.941406 480.089844 -108 495 -108 C 509.910156 -108 522 -99.941406 522 -90 Z M 522 -90 " transform="matrix(1,0,0,1,4,184)"/>
<path style=" stroke:none;fill-rule:nonzero;fill:rgb(0%,0%,0%);fill-opacity:1;" d="M 492.28125 88.15625 L 493.640625 88.15625 L 493.640625 97.003906 L 498.726562 97.003906 L 498.726562 98.199219 L 492.28125 98.199219 Z M 502.636719 98.464844 C 501.480469 98.464844 500.640625 98.148438 500.117188 97.511719 C 499.59375 96.875 499.335938 96.101562 499.335938 95.191406 L 500.621094 95.191406 C 500.675781 95.824219 500.792969 96.285156 500.976562 96.574219 C 501.296875 97.089844 501.871094 97.34375 502.703125 97.34375 C 503.351562 97.34375 503.871094 97.171875 504.265625 96.824219 C 504.65625 96.480469 504.851562 96.03125 504.851562 95.484375 C 504.851562 94.808594 504.644531 94.339844 504.234375 94.070312 C 503.820312 93.800781 503.246094 93.667969 502.515625 93.667969 C 502.433594 93.667969 502.347656 93.667969 502.265625 93.671875 C 502.179688 93.671875 502.09375 93.675781 502.007812 93.679688 L 502.007812 92.59375 C 502.136719 92.605469 502.242188 92.617188 502.328125 92.621094 C 502.414062 92.625 502.507812 92.628906 502.609375 92.628906 C 503.070312 92.628906 503.449219 92.554688 503.742188 92.410156 C 504.261719 92.152344 504.523438 91.699219 504.523438 91.042969 C 504.523438 90.554688 504.351562 90.179688 504.003906 89.914062 C 503.65625 89.648438 503.253906 89.519531 502.792969 89.519531 C 501.972656 89.519531 501.40625 89.792969 501.09375 90.339844 C 500.917969 90.640625 500.820312 91.066406 500.796875 91.621094 L 499.582031 91.621094 C 499.582031 90.894531 499.726562 90.273438 500.019531 89.761719 C 500.519531 88.851562 501.402344 88.394531 502.664062 88.394531 C 503.664062 88.394531 504.433594 88.617188 504.980469 89.0625 C 505.527344 89.507812 505.800781 90.152344 505.800781 90.996094 C 505.800781 91.597656 505.640625 92.082031 505.316406 92.457031 C 505.117188 92.691406 504.855469 92.871094 504.539062 93.003906 C 505.054688 93.144531 505.453125 93.417969 505.742188 93.820312 C 506.03125 94.222656 506.179688 94.71875 506.179688 95.300781 C 506.179688 96.234375 505.871094 96.996094 505.253906 97.582031 C 504.640625 98.171875 503.765625 98.464844 502.636719 98.464844 Z M 491.214844 87.417969 "/>
<path style="fill:none;stroke-width:1;stroke-linecap:butt;stroke-linejoin:miter;stroke:rgb(0%,0%,0%);stroke-opacity:1;stroke-miterlimit:4;" d="M 486.285156 -72.570312 C 482.175781 -64.355469 477.179688 -54.359375 472.589844 -45.183594 " transform="matrix(1,0,0,1,4,184)"/>
<path style="fill-rule:nonzero;fill:rgb(0%,0%,0%);fill-opacity:1;stroke-width:1;stroke-linecap:butt;stroke-linejoin:miter;stroke:rgb(0%,0%,0%);stroke-opacity:1;stroke-miterlimit:4;" d="M 475.613281 -43.398438 L 468.011719 -36.019531 L 469.351562 -46.53125 Z M 475.613281 -43.398438 " transform="matrix(1,0,0,1,4,184)"/>
<path style="fill:none;stroke-width:1;stroke-linecap:butt;stroke-linejoin:miter;stroke:rgb(0%,0%,0%);stroke-opacity:1;stroke-miterlimit:4;" d="M 503.714844 -72.570312 C 507.824219 -64.355469 512.820312 -54.359375 517.410156 -45.183594 " transform="matrix(1,0,0,1,4,184)"/>
<path style="fill-rule:nonzero;fill:rgb(0%,0%,0%);fill-opacity:1;stroke-width:1;stroke-linecap:butt;stroke-linejoin:miter;stroke:rgb(0%,0%,0%);stroke-opacity:1;stroke-miterlimit:4;" d="M 520.648438 -46.53125 L 521.988281 -36.019531 L 514.386719 -43.398438 Z M 520.648438 -46.53125 " transform="matrix(1,0,0,1,4,184)"/>
<path style="fill:none;stroke-width:1;stroke-linecap:butt;stroke-linejoin:miter;stroke:rgb(0%,0%,0%);stroke-opacity:1;stroke-miterlimit:4;" d="M 514.308594 -77.128906 C 529.011719 -67.324219 549.667969 -53.554688 567.34375 -41.769531 " transform="matrix(1,0,0,1,4,184)"/>
<path style="fill-rule:nonzero;fill:rgb(0%,0%,0%);fill-opacity:1;stroke-width:1;stroke-linecap:butt;stroke-linejoin:miter;stroke:rgb(0%,0%,0%);stroke-opacity:1;stroke-miterlimit:4;" d="M 569.367188 -44.628906 L 575.746094 -36.171875 L 565.484375 -38.804688 Z M 569.367188 -44.628906 " transform="matrix(1,0,0,1,4,184)"/>
<path style="fill:none;stroke-width:1;stroke-linecap:butt;stroke-linejoin:miter;stroke:rgb(0%,0%,0%);stroke-opacity:1;stroke-miterlimit:4;" d="M 342 -162 C 342 -152.058594 329.910156 -144 315 -144 C 300.089844 -144 288 -152.058594 288 -162 C 288 -171.941406 300.089844 -180 315 -180 C 329.910156 -180 342 -171.941406 342 -162 Z M 342 -162 " transform="matrix(1,0,0,1,4,184)"/>
<path style=" stroke:none;fill-rule:nonzero;fill:rgb(0%,0%,0%);fill-opacity:1;" d="M 316.441406 23.207031 C 316.441406 24.054688 316.316406 24.710938 316.0625 25.179688 C 315.597656 26.035156 314.714844 26.464844 313.414062 26.464844 C 312.660156 26.464844 312.015625 26.261719 311.484375 25.855469 C 310.953125 25.445312 310.683594 24.71875 310.683594 23.675781 L 310.683594 22.957031 L 311.960938 22.957031 L 311.960938 23.675781 C 311.960938 24.222656 312.085938 24.636719 312.328125 24.910156 C 312.570312 25.1875 312.953125 25.324219 313.46875 25.324219 C 314.191406 25.324219 314.664062 25.074219 314.890625 24.578125 C 315.027344 24.273438 315.09375 23.699219 315.09375 22.847656 L 315.09375 16.15625 L 316.441406 16.15625 Z M 322.742188 15.882812 C 324.015625 15.882812 325 16.21875 325.703125 16.886719 C 326.40625 17.558594 326.792969 18.320312 326.871094 19.171875 L 325.546875 19.171875 C 325.394531 18.523438 325.097656 18.011719 324.648438 17.632812 C 324.199219 17.253906 323.566406 17.066406 322.757812 17.066406 C 321.769531 17.066406 320.96875 17.414062 320.359375 18.109375 C 319.75 18.804688 319.449219 19.871094 319.449219 21.304688 C 319.449219 22.480469 319.722656 23.433594 320.273438 24.164062 C 320.820312 24.894531 321.640625 25.261719 322.730469 25.261719 C 323.734375 25.261719 324.496094 24.878906 325.019531 24.105469 C 325.296875 23.699219 325.503906 23.167969 325.640625 22.507812 L 326.96875 22.507812 C 326.851562 23.566406 326.457031 24.453125 325.792969 25.167969 C 324.996094 26.027344 323.917969 26.457031 322.566406 26.457031 C 321.398438 26.457031 320.417969 26.105469 319.625 25.398438 C 318.582031 24.464844 318.0625 23.023438 318.0625 21.074219 C 318.0625 19.589844 318.453125 18.375 319.234375 17.429688 C 320.082031 16.398438 321.253906 15.882812 322.742188 15.882812 Z M 310.445312 15.417969 "/>
<path style="fill:none;stroke-width:1;stroke-linecap:butt;stroke-linejoin:miter;stroke:rgb(0%,0%,0%);stroke-opacity:1;stroke-miterlimit:4;" d="M 291.835938 -152.734375 C 260.332031 -140.132812 203.792969 -117.515625 167.898438 -103.160156 " transform="matrix(1,0,0,1,4,184)"/>
<path style="fill-rule:nonzero;fill:rgb(0%,0%,0%);fill-opacity:1;stroke-width:1;stroke-linecap:butt;stroke-linejoin:miter;stroke:rgb(0%,0%,0%);stroke-opacity:1;stroke-miterlimit:4;" d="M 168.945312 -99.808594 L 158.359375 -99.34375 L 166.34375 -106.308594 Z M 168.945312 -99.808594 " transform="matrix(1,0,0,1,4,184)"/>
<path style="fill:none;stroke-width:1;stroke-linecap:butt;stroke-linejoin:miter;stroke:rgb(0%,0%,0%);stroke-opacity:1;stroke-miterlimit:4;" d="M 315 -143.832031 C 315 -136.132812 315 -126.972656 315 -118.417969 " transform="matrix(1,0,0,1,4,184)"/>
<path style="fill-rule:nonzero;fill:rgb(0%,0%,0%);fill-opacity:1;stroke-width:1;stroke-linecap:butt;stroke-linejoin:miter;stroke:rgb(0%,0%,0%);stroke-opacity:1;stroke-miterlimit:4;" d="M 318.5 -118.414062 L 315 -108.414062 L 311.5 -118.414062 Z M 318.5 -118.414062 " transform="matrix(1,0,0,1,4,184)"/>
<path style="fill:none;stroke-width:1;stroke-linecap:butt;stroke-linejoin:miter;stroke:rgb(0%,0%,0%);stroke-opacity:1;stroke-miterlimit:4;" d="M 338.164062 -152.734375 C 369.667969 -140.132812 426.207031 -117.515625 462.101562 -103.160156 " transform="matrix(1,0,0,1,4,184)"/>
<path style="fill-rule:nonzero;fill:rgb(0%,0%,0%);fill-opacity:1;stroke-width:1;stroke-linecap:butt;stroke-linejoin:miter;stroke:rgb(0%,0%,0%);stroke-opacity:1;stroke-miterlimit:4;" d="M 463.65625 -106.308594 L 471.640625 -99.34375 L 461.054688 -99.808594 Z M 463.65625 -106.308594 " transform="matrix(1,0,0,1,4,184)"/>
</g>
</svg>
