<?xml version="1.0" encoding="UTF-8"?>
<svg xmlns="http://www.w3.org/2000/svg" xmlns:xlink="http://www.w3.org/1999/xlink" width="458pt" height="260pt" viewBox="0 0 458 260" version="1.1">
<g id="surface527">
<rect x="0" y="0" width="458" height="260" style="fill:rgb(100%,100%,100%);fill-opacity:1;stroke:none;"/>
<path style="fill:none;stroke-width:1;stroke-linecap:butt;stroke-linejoin:miter;stroke:rgb(0%,0%,0%);stroke-opacity:1;stroke-miterlimit:4;" d="M 54 -180 L 0 -180 L 0 -144 L 54 -144 Z M 54 -180 " transform="matrix(1,0,0,1,4,256)"/>
<path style=" stroke:none;fill-rule:nonzero;fill:rgb(0%,0%,0%);fill-opacity:1;" d="M 23.808594 90.878906 L 25.402344 90.878906 L 27.085938 93.457031 L 28.785156 90.878906 L 30.285156 90.910156 L 27.816406 94.445312 L 30.394531 98.199219 L 28.820312 98.199219 L 27.003906 95.449219 L 25.238281 98.199219 L 23.679688 98.199219 L 26.257812 94.445312 Z M 31.945312 91.269531 L 31.945312 90.324219 C 32.832031 90.238281 33.453125 90.09375 33.804688 89.890625 C 34.15625 89.6875 34.417969 89.207031 34.589844 88.449219 L 35.5625 88.449219 L 35.5625 98.199219 L 34.25 98.199219 L 34.25 91.269531 Z M 23.605469 87.417969 "/>
<path style="fill:none;stroke-width:1;stroke-linecap:butt;stroke-linejoin:miter;stroke:rgb(0%,0%,0%);stroke-opacity:1;stroke-miterlimit:4;" d="M 126 -180 L 72 -180 L 72 -144 L 126 -144 Z M 126 -180 " transform="matrix(1,0,0,1,4,256)"/>
<path style=" stroke:none;fill-rule:nonzero;fill:rgb(0%,0%,0%);fill-opacity:1;" d="M 101.082031 90.878906 L 102.441406 90.878906 C 102.269531 91.347656 101.882812 92.417969 101.285156 94.089844 C 100.839844 95.347656 100.464844 96.375 100.164062 97.167969 C 99.453125 99.035156 98.953125 100.175781 98.660156 100.585938 C 98.371094 100.996094 97.867188 101.199219 97.15625 101.199219 C 96.984375 101.199219 96.851562 101.191406 96.757812 101.179688 C 96.664062 101.167969 96.550781 101.140625 96.410156 101.105469 L 96.410156 99.984375 C 96.625 100.042969 96.78125 100.078125 96.878906 100.09375 C 96.972656 100.105469 97.058594 100.113281 97.128906 100.113281 C 97.355469 100.113281 97.523438 100.074219 97.632812 100 C 97.738281 99.925781 97.828125 99.832031 97.902344 99.722656 C 97.925781 99.6875 98.007812 99.5 98.148438 99.164062 C 98.289062 98.824219 98.390625 98.574219 98.457031 98.410156 L 95.75 90.878906 L 97.144531 90.878906 L 99.105469 96.839844 Z M 103.945312 91.269531 L 103.945312 90.324219 C 104.832031 90.238281 105.453125 90.09375 105.804688 89.890625 C 106.15625 89.6875 106.417969 89.207031 106.589844 88.449219 L 107.5625 88.449219 L 107.5625 98.199219 L 106.25 98.199219 L 106.25 91.269531 Z M 95.605469 87.417969 "/>
<path style="fill:none;stroke-width:1;stroke-linecap:butt;stroke-linejoin:miter;stroke:rgb(0%,0%,0%);stroke-opacity:1;stroke-miterlimit:4;" d="M 198 -180 L 144 -180 L 144 -144 L 198 -144 Z M 198 -180 " transform="matrix(1,0,0,1,4,256)"/>
<path style=" stroke:none;fill-rule:nonzero;fill:rgb(0%,0%,0%);fill-opacity:1;" d="M 167.960938 97.230469 L 172.300781 91.980469 L 168.28125 91.980469 L 168.28125 90.878906 L 173.957031 90.878906 L 173.957031 91.882812 L 169.644531 97.097656 L 174.085938 97.097656 L 174.085938 98.199219 L 167.960938 98.199219 Z M 175.945312 91.269531 L 175.945312 90.324219 C 176.832031 90.238281 177.453125 90.09375 177.804688 89.890625 C 178.15625 89.6875 178.417969 89.207031 178.589844 88.449219 L 179.5625 88.449219 L 179.5625 98.199219 L 178.25 98.199219 L 178.25 91.269531 Z M 167.605469 87.417969 "/>
<path style="fill:none;stroke-width:1;stroke-linecap:butt;stroke-linejoin:miter;stroke:rgb(0%,0%,0%);stroke-opacity:1;stroke-miterlimit:4;" d="M 162 -108 L 108 -108 L 108 -72 L 162 -72 Z M 162 -108 " transform="matrix(1,0,0,1,4,256)"/>
<path style=" stroke:none;fill-rule:nonzero;fill:rgb(0%,0%,0%);fill-opacity:1;" d="M 131.808594 162.878906 L 133.402344 162.878906 L 135.085938 165.457031 L 136.785156 162.878906 L 138.285156 162.910156 L 135.816406 166.445312 L 138.394531 170.199219 L 136.820312 170.199219 L 135.003906 167.449219 L 133.238281 170.199219 L 131.679688 170.199219 L 134.257812 166.445312 Z M 139.042969 170.199219 C 139.089844 169.355469 139.261719 168.621094 139.566406 167.996094 C 139.871094 167.371094 140.460938 166.804688 141.339844 166.296875 L 142.652344 165.535156 C 143.238281 165.195312 143.652344 164.902344 143.890625 164.660156 C 144.261719 164.285156 144.449219 163.851562 144.449219 163.363281 C 144.449219 162.792969 144.277344 162.339844 143.9375 162.007812 C 143.597656 161.671875 143.140625 161.503906 142.570312 161.503906 C 141.726562 161.503906 141.144531 161.824219 140.820312 162.460938 C 140.648438 162.800781 140.550781 163.277344 140.535156 163.882812 L 139.28125 163.882812 C 139.296875 163.03125 139.453125 162.335938 139.753906 161.796875 C 140.285156 160.847656 141.226562 160.375 142.578125 160.375 C 143.699219 160.375 144.515625 160.679688 145.035156 161.285156 C 145.550781 161.890625 145.808594 162.566406 145.808594 163.308594 C 145.808594 164.09375 145.535156 164.761719 144.984375 165.316406 C 144.664062 165.640625 144.09375 166.035156 143.269531 166.496094 L 142.332031 167.011719 C 141.886719 167.257812 141.535156 167.496094 141.277344 167.71875 C 140.824219 168.113281 140.535156 168.554688 140.417969 169.035156 L 145.761719 169.035156 L 145.761719 170.199219 Z M 131.605469 159.417969 "/>
<path style="fill:none;stroke-width:1;stroke-linecap:butt;stroke-linejoin:miter;stroke:rgb(0%,0%,0%);stroke-opacity:1;stroke-miterlimit:4;" d="M 234 -108 L 180 -108 L 180 -72 L 234 -72 Z M 234 -108 " transform="matrix(1,0,0,1,4,256)"/>
<path style=" stroke:none;fill-rule:nonzero;fill:rgb(0%,0%,0%);fill-opacity:1;" d="M 209.082031 162.878906 L 210.441406 162.878906 C 210.269531 163.347656 209.882812 164.417969 209.285156 166.089844 C 208.839844 167.347656 208.464844 168.375 208.164062 169.167969 C 207.453125 171.035156 206.953125 172.175781 206.660156 172.585938 C 206.371094 172.996094 205.867188 173.199219 205.15625 173.199219 C 204.984375 173.199219 204.851562 173.191406 204.757812 173.179688 C 204.664062 173.167969 204.550781 173.140625 204.410156 173.105469 L 204.410156 171.984375 C 204.625 172.042969 204.78125 172.078125 204.878906 172.09375 C 204.972656 172.105469 205.058594 172.113281 205.128906 172.113281 C 205.355469 172.113281 205.523438 172.074219 205.632812 172 C 205.738281 171.925781 205.828125 171.832031 205.902344 171.722656 C 205.925781 171.6875 206.007812 171.5 206.148438 171.164062 C 206.289062 170.824219 206.390625 170.574219 206.457031 170.410156 L 203.75 162.878906 L 205.144531 162.878906 L 207.105469 168.839844 Z M 211.042969 170.199219 C 211.089844 169.355469 211.261719 168.621094 211.566406 167.996094 C 211.871094 167.371094 212.460938 166.804688 213.339844 166.296875 L 214.652344 165.535156 C 215.238281 165.195312 215.652344 164.902344 215.890625 164.660156 C 216.261719 164.285156 216.449219 163.851562 216.449219 163.363281 C 216.449219 162.792969 216.277344 162.339844 215.9375 162.007812 C 215.597656 161.671875 215.140625 161.503906 214.570312 161.503906 C 213.726562 161.503906 213.144531 161.824219 212.820312 162.460938 C 212.648438 162.800781 212.550781 163.277344 212.535156 163.882812 L 211.28125 163.882812 C 211.296875 163.03125 211.453125 162.335938 211.753906 161.796875 C 212.285156 160.847656 213.226562 160.375 214.578125 160.375 C 215.699219 160.375 216.515625 160.679688 217.035156 161.285156 C 217.550781 161.890625 217.808594 162.566406 217.808594 163.308594 C 217.808594 164.09375 217.535156 164.761719 216.984375 165.316406 C 216.664062 165.640625 216.09375 166.035156 215.269531 166.496094 L 214.332031 167.011719 C 213.886719 167.257812 213.535156 167.496094 213.277344 167.71875 C 212.824219 168.113281 212.535156 168.554688 212.417969 169.035156 L 217.761719 169.035156 L 217.761719 170.199219 Z M 203.605469 159.417969 "/>
<path style="fill:none;stroke-width:1;stroke-linecap:butt;stroke-linejoin:miter;stroke:rgb(0%,0%,0%);stroke-opacity:1;stroke-miterlimit:4;" d="M 306 -108 L 252 -108 L 252 -72 L 306 -72 Z M 306 -108 " transform="matrix(1,0,0,1,4,256)"/>
<path style=" stroke:none;fill-rule:nonzero;fill:rgb(0%,0%,0%);fill-opacity:1;" d="M 275.960938 169.230469 L 280.300781 163.980469 L 276.28125 163.980469 L 276.28125 162.878906 L 281.957031 162.878906 L 281.957031 163.882812 L 277.644531 169.097656 L 282.085938 169.097656 L 282.085938 170.199219 L 275.960938 170.199219 Z M 283.042969 170.199219 C 283.089844 169.355469 283.261719 168.621094 283.566406 167.996094 C 283.871094 167.371094 284.460938 166.804688 285.339844 166.296875 L 286.652344 165.535156 C 287.238281 165.195312 287.652344 164.902344 287.890625 164.660156 C 288.261719 164.285156 288.449219 163.851562 288.449219 163.363281 C 288.449219 162.792969 288.277344 162.339844 287.9375 162.007812 C 287.597656 161.671875 287.140625 161.503906 286.570312 161.503906 C 285.726562 161.503906 285.144531 161.824219 284.820312 162.460938 C 284.648438 162.800781 284.550781 163.277344 284.535156 163.882812 L 283.28125 163.882812 C 283.296875 163.03125 283.453125 162.335938 283.753906 161.796875 C 284.285156 160.847656 285.226562 160.375 286.578125 160.375 C 287.699219 160.375 288.515625 160.679688 289.035156 161.285156 C 289.550781 161.890625 289.808594 162.566406 289.808594 163.308594 C 289.808594 164.09375 289.535156 164.761719 288.984375 165.316406 C 288.664062 165.640625 288.09375 166.035156 287.269531 166.496094 L 286.332031 167.011719 C 285.886719 167.257812 285.535156 167.496094 285.277344 167.71875 C 284.824219 168.113281 284.535156 168.554688 284.417969 169.035156 L 289.761719 169.035156 L 289.761719 170.199219 Z M 275.605469 159.417969 "/>
<path style="fill:none;stroke-width:1;stroke-linecap:butt;stroke-linejoin:miter;stroke:rgb(0%,0%,0%);stroke-opacity:1;stroke-miterlimit:4;" d="M 306 -36 L 252 -36 L 252 0 L 306 0 Z M 306 -36 " transform="matrix(1,0,0,1,4,256)"/>
<path style=" stroke:none;fill-rule:nonzero;fill:rgb(0%,0%,0%);fill-opacity:1;" d="M 275.808594 234.878906 L 277.402344 234.878906 L 279.085938 237.457031 L 280.785156 234.878906 L 282.285156 234.910156 L 279.816406 238.445312 L 282.394531 242.199219 L 280.820312 242.199219 L 279.003906 239.449219 L 277.238281 242.199219 L 275.679688 242.199219 L 278.257812 238.445312 Z M 286.242188 242.464844 C 285.085938 242.464844 284.246094 242.148438 283.722656 241.511719 C 283.199219 240.875 282.941406 240.101562 282.941406 239.191406 L 284.226562 239.191406 C 284.28125 239.824219 284.398438 240.285156 284.582031 240.574219 C 284.902344 241.089844 285.476562 241.34375 286.308594 241.34375 C 286.957031 241.34375 287.476562 241.171875 287.871094 240.824219 C 288.261719 240.480469 288.457031 240.03125 288.457031 239.484375 C 288.457031 238.808594 288.25 238.339844 287.839844 238.070312 C 287.425781 237.800781 286.851562 237.667969 286.121094 237.667969 C 286.039062 237.667969 285.953125 237.667969 285.871094 237.671875 C 285.785156 237.671875 285.699219 237.675781 285.613281 237.679688 L 285.613281 236.59375 C 285.742188 236.605469 285.847656 236.617188 285.933594 236.621094 C 286.019531 236.625 286.113281 236.628906 286.214844 236.628906 C 286.675781 236.628906 287.054688 236.554688 287.347656 236.410156 C 287.867188 236.152344 288.128906 235.699219 288.128906 235.042969 C 288.128906 234.554688 287.957031 234.179688 287.609375 233.914062 C 287.261719 233.648438 286.859375 233.519531 286.398438 233.519531 C 285.578125 233.519531 285.011719 233.792969 284.699219 234.339844 C 284.523438 234.640625 284.425781 235.066406 284.402344 235.621094 L 283.1875 235.621094 C 283.1875 234.894531 283.332031 234.273438 283.625 233.761719 C 284.125 232.851562 285.007812 232.394531 286.269531 232.394531 C 287.269531 232.394531 288.039062 232.617188 288.585938 233.0625 C 289.132812 233.507812 289.40625 234.152344 289.40625 234.996094 C 289.40625 235.597656 289.246094 236.082031 288.921875 236.457031 C 288.722656 236.691406 288.460938 236.871094 288.144531 237.003906 C 288.660156 237.144531 289.058594 237.417969 289.347656 237.820312 C 289.636719 238.222656 289.785156 238.71875 289.785156 239.300781 C 289.785156 240.234375 289.476562 240.996094 288.859375 241.582031 C 288.246094 242.171875 287.371094 242.464844 286.242188 242.464844 Z M 275.605469 231.417969 "/>
<path style="fill:none;stroke-width:1;stroke-linecap:butt;stroke-linejoin:miter;stroke:rgb(0%,0%,0%);stroke-opacity:1;stroke-miterlimit:4;" d="M 378 -36 L 324 -36 L 324 0 L 378 0 Z M 378 -36 " transform="matrix(1,0,0,1,4,256)"/>
<path style=" stroke:none;fill-rule:nonzero;fill:rgb(0%,0%,0%);fill-opacity:1;" d="M 353.082031 234.878906 L 354.441406 234.878906 C 354.269531 235.347656 353.882812 236.417969 353.285156 238.089844 C 352.839844 239.347656 352.464844 240.375 352.164062 241.167969 C 351.453125 243.035156 350.953125 244.175781 350.660156 244.585938 C 350.371094 244.996094 349.867188 245.199219 349.15625 245.199219 C 348.984375 245.199219 348.851562 245.191406 348.757812 245.179688 C 348.664062 245.167969 348.550781 245.140625 348.410156 245.105469 L 348.410156 243.984375 C 348.625 244.042969 348.78125 244.078125 348.878906 244.09375 C 348.972656 244.105469 349.058594 244.113281 349.128906 244.113281 C 349.355469 244.113281 349.523438 244.074219 349.632812 244 C 349.738281 243.925781 349.828125 243.832031 349.902344 243.722656 C 349.925781 243.6875 350.007812 243.5 350.148438 243.164062 C 350.289062 242.824219 350.390625 242.574219 350.457031 242.410156 L 347.75 234.878906 L 349.144531 234.878906 L 351.105469 240.839844 Z M 358.242188 242.464844 C 357.085938 242.464844 356.246094 242.148438 355.722656 241.511719 C 355.199219 240.875 354.941406 240.101562 354.941406 239.191406 L 356.226562 239.191406 C 356.28125 239.824219 356.398438 240.285156 356.582031 240.574219 C 356.902344 241.089844 357.476562 241.34375 358.308594 241.34375 C 358.957031 241.34375 359.476562 241.171875 359.871094 240.824219 C 360.261719 240.480469 360.457031 240.03125 360.457031 239.484375 C 360.457031 238.808594 360.25 238.339844 359.839844 238.070312 C 359.425781 237.800781 358.851562 237.667969 358.121094 237.667969 C 358.039062 237.667969 357.953125 237.667969 357.871094 237.671875 C 357.785156 237.671875 357.699219 237.675781 357.613281 237.679688 L 357.613281 236.59375 C 357.742188 236.605469 357.847656 236.617188 357.933594 236.621094 C 358.019531 236.625 358.113281 236.628906 358.214844 236.628906 C 358.675781 236.628906 359.054688 236.554688 359.347656 236.410156 C 359.867188 236.152344 360.128906 235.699219 360.128906 235.042969 C 360.128906 234.554688 359.957031 234.179688 359.609375 233.914062 C 359.261719 233.648438 358.859375 233.519531 358.398438 233.519531 C 357.578125 233.519531 357.011719 233.792969 356.699219 234.339844 C 356.523438 234.640625 356.425781 235.066406 356.402344 235.621094 L 355.1875 235.621094 C 355.1875 234.894531 355.332031 234.273438 355.625 233.761719 C 356.125 232.851562 357.007812 232.394531 358.269531 232.394531 C 359.269531 232.394531 360.039062 232.617188 360.585938 233.0625 C 361.132812 233.507812 361.40625 234.152344 361.40625 234.996094 C 361.40625 235.597656 361.246094 236.082031 360.921875 236.457031 C 360.722656 236.691406 360.460938 236.871094 360.144531 237.003906 C 360.660156 237.144531 361.058594 237.417969 361.347656 237.820312 C 361.636719 238.222656 361.785156 238.71875 361.785156 239.300781 C 361.785156 240.234375 361.476562 240.996094 360.859375 241.582031 C 360.246094 242.171875 359.371094 242.464844 358.242188 242.464844 Z M 347.605469 231.417969 "/>
<path style="fill:none;stroke-width:1;stroke-linecap:butt;stroke-linejoin:miter;stroke:rgb(0%,0%,0%);stroke-opacity:1;stroke-miterlimit:4;" d="M 450 -36 L 396 -36 L 396 0 L 450 0 Z M 450 -36 " transform="matrix(1,0,0,1,4,256)"/>
<path style=" stroke:none;fill-rule:nonzero;fill:rgb(0%,0%,0%);fill-opacity:1;" d="M 419.960938 241.230469 L 424.300781 235.980469 L 420.28125 235.980469 L 420.28125 234.878906 L 425.957031 234.878906 L 425.957031 235.882812 L 421.644531 241.097656 L 426.085938 241.097656 L 426.085938 242.199219 L 419.960938 242.199219 Z M 430.242188 242.464844 C 429.085938 242.464844 428.246094 242.148438 427.722656 241.511719 C 427.199219 240.875 426.941406 240.101562 426.941406 239.191406 L 428.226562 239.191406 C 428.28125 239.824219 428.398438 240.285156 428.582031 240.574219 C 428.902344 241.089844 429.476562 241.34375 430.308594 241.34375 C 430.957031 241.34375 431.476562 241.171875 431.871094 240.824219 C 432.261719 240.480469 432.457031 240.03125 432.457031 239.484375 C 432.457031 238.808594 432.25 238.339844 431.839844 238.070312 C 431.425781 237.800781 430.851562 237.667969 430.121094 237.667969 C 430.039062 237.667969 429.953125 237.667969 429.871094 237.671875 C 429.785156 237.671875 429.699219 237.675781 429.613281 237.679688 L 429.613281 236.59375 C 429.742188 236.605469 429.847656 236.617188 429.933594 236.621094 C 430.019531 236.625 430.113281 236.628906 430.214844 236.628906 C 430.675781 236.628906 431.054688 236.554688 431.347656 236.410156 C 431.867188 236.152344 432.128906 235.699219 432.128906 235.042969 C 432.128906 234.554688 431.957031 234.179688 431.609375 233.914062 C 431.261719 233.648438 430.859375 233.519531 430.398438 233.519531 C 429.578125 233.519531 429.011719 233.792969 428.699219 234.339844 C 428.523438 234.640625 428.425781 235.066406 428.402344 235.621094 L 427.1875 235.621094 C 427.1875 234.894531 427.332031 234.273438 427.625 233.761719 C 428.125 232.851562 429.007812 232.394531 430.269531 232.394531 C 431.269531 232.394531 432.039062 232.617188 432.585938 233.0625 C 433.132812 233.507812 433.40625 234.152344 433.40625 234.996094 C 433.40625 235.597656 433.246094 236.082031 432.921875 236.457031 C 432.722656 236.691406 432.460938 236.871094 432.144531 237.003906 C 432.660156 237.144531 433.058594 237.417969 433.347656 237.820312 C 433.636719 238.222656 433.785156 238.71875 433.785156 239.300781 C 433.785156 240.234375 433.476562 240.996094 432.859375 241.582031 C 432.246094 242.171875 431.371094 242.464844 430.242188 242.464844 Z M 419.605469 231.417969 "/>
<path style="fill:none;stroke-width:1;stroke-linecap:butt;stroke-linejoin:miter;stroke:rgb(0%,0%,0%);stroke-opacity:1;stroke-miterlimit:4;" d="M 162 -234 C 162 -224.058594 149.910156 -216 135 -216 C 120.089844 -216 108 -224.058594 108 -234 C 108 -243.941406 120.089844 -252 135 -252 C 149.910156 -252 162 -243.941406 162 -234 Z M 162 -234 " transform="matrix(1,0,0,1,4,256)"/>
<path style=" stroke:none;fill-rule:nonzero;fill:rgb(0%,0%,0%);fill-opacity:1;" d="M 132.28125 16.15625 L 133.640625 16.15625 L 133.640625 25.003906 L 138.726562 25.003906 L 138.726562 26.199219 L 132.28125 26.199219 Z M 140.339844 19.269531 L 140.339844 18.324219 C 141.226562 18.238281 141.847656 18.09375 142.199219 17.890625 C 142.550781 17.6875 142.8125 17.207031 142.984375 16.449219 L 143.957031 16.449219 L 143.957031 26.199219 L 142.644531 26.199219 L 142.644531 19.269531 Z M 131.214844 15.417969 "/>
<path style="fill:none;stroke-width:1;stroke-linecap:butt;stroke-linejoin:miter;stroke:rgb(0%,0%,0%);stroke-opacity:1;stroke-miterlimit:4;" d="M 115.691406 -221.128906 C 100.988281 -211.324219 80.332031 -197.554688 62.65625 -185.769531 " transform="matrix(1,0,0,1,4,256)"/>
<path style="fill-rule:nonzero;fill:rgb(0%,0%,0%);fill-opacity:1;stroke-width:1;stroke-linecap:butt;stroke-linejoin:miter;stroke:rgb(0%,0%,0%);stroke-opacity:1;stroke-miterlimit:4;" d="M 64.515625 -182.804688 L 54.253906 -180.171875 L 60.632812 -188.628906 Z M 64.515625 -182.804688 " transform="matrix(1,0,0,1,4,256)"/>
<path style="fill:none;stroke-width:1;stroke-linecap:butt;stroke-linejoin:miter;stroke:rgb(0%,0%,0%);stroke-opacity:1;stroke-miterlimit:4;" d="M 126.285156 -216.570312 C 122.175781 -208.355469 117.179688 -198.359375 112.589844 -189.183594 " transform="matrix(1,0,0,1,4,256)"/>
<path style="fill-rule:nonzero;fill:rgb(0%,0%,0%);fill-opacity:1;stroke-width:1;stroke-linecap:butt;stroke-linejoin:miter;stroke:rgb(0%,0%,0%);stroke-opacity:1;stroke-miterlimit:4;" d="M 115.613281 -187.398438 L 108.011719 -180.019531 L 109.351562 -190.53125 Z M 115.613281 -187.398438 " transform="matrix(1,0,0,1,4,256)"/>
<path style="fill:none;stroke-width:1;stroke-linecap:butt;stroke-linejoin:miter;stroke:rgb(0%,0%,0%);stroke-opacity:1;stroke-miterlimit:4;" d="M 143.714844 -216.570312 C 147.824219 -208.355469 152.820312 -198.359375 157.410156 -189.183594 " transform="matrix(1,0,0,1,4,256)"/>
<path style="fill-rule:nonzero;fill:rgb(0%,0%,0%);fill-opacity:1;stroke-width:1;stroke-linecap:butt;stroke-linejoin:miter;stroke:rgb(0%,0%,0%);stroke-opacity:1;stroke-miterlimit:4;" d="M 160.648438 -190.53125 L 161.988281 -180.019531 L 154.386719 -187.398438 Z M 160.648438 -190.53125 " transform="matrix(1,0,0,1,4,256)"/>
<path style="fill:none;stroke-width:1;stroke-linecap:butt;stroke-linejoin:miter;stroke:rgb(0%,0%,0%);stroke-opacity:1;stroke-miterlimit:4;" d="M 270 -162 C 270 -152.058594 257.910156 -144 243 -144 C 228.089844 -144 216 -152.058594 216 -162 C 216 -171.941406 228.089844 -180 243 -180 C 257.910156 -180 270 -171.941406 270 -162 Z M 270 -162 " transform="matrix(1,0,0,1,4,256)"/>
<path style=" stroke:none;fill-rule:nonzero;fill:rgb(0%,0%,0%);fill-opacity:1;" d="M 240.28125 88.15625 L 241.640625 88.15625 L 241.640625 97.003906 L 246.726562 97.003906 L 246.726562 98.199219 L 240.28125 98.199219 Z M 247.4375 98.199219 C 247.484375 97.355469 247.65625 96.621094 247.960938 95.996094 C 248.265625 95.371094 248.855469 94.804688 249.734375 94.296875 L 251.046875 93.535156 C 251.632812 93.195312 252.046875 92.902344 252.285156 92.660156 C 252.65625 92.285156 252.84375 91.851562 252.84375 91.363281 C 252.84375 90.792969 252.671875 90.339844 252.332031 90.007812 C 251.992188 89.671875 251.535156 89.503906 250.964844 89.503906 C 250.121094 89.503906 249.539062 89.824219 249.214844 90.460938 C 249.042969 90.800781 248.945312 91.277344 248.929688 91.882812 L 247.675781 91.882812 C 247.691406 91.03125 247.847656 90.335938 248.148438 89.796875 C 248.679688 88.847656 249.621094 88.375 250.972656 88.375 C 252.09375 88.375 252.910156 88.679688 253.429688 89.285156 C 253.945312 89.890625 254.203125 90.566406 254.203125 91.308594 C 254.203125 92.09375 253.929688 92.761719 253.378906 93.316406 C 253.058594 93.640625 252.488281 94.035156 251.664062 94.496094 L 250.726562 95.011719 C 250.28125 95.257812 249.929688 95.496094 249.671875 95.71875 C 249.21875 96.113281 248.929688 96.554688 248.8125 97.035156 L 254.15625 97.035156 L 254.15625 98.199219 Z M 239.214844 87.417969 "/>
<path style="fill:none;stroke-width:1;stroke-linecap:butt;stroke-linejoin:miter;stroke:rgb(0%,0%,0%);stroke-opacity:1;stroke-miterlimit:4;" d="M 154.308594 -221.128906 C 171.355469 -209.761719 196.402344 -193.066406 215.535156 -180.308594 " transform="matrix(1,0,0,1,4,256)"/>
<path style="fill-rule:nonzero;fill:rgb(0%,0%,0%);fill-opacity:1;stroke-width:1;stroke-linecap:butt;stroke-linejoin:miter;stroke:rgb(0%,0%,0%);stroke-opacity:1;stroke-miterlimit:4;" d="M 217.480469 -183.21875 L 223.859375 -174.761719 L 213.597656 -177.394531 Z M 217.480469 -183.21875 " transform="matrix(1,0,0,1,4,256)"/>
<path style="fill:none;stroke-width:1;stroke-linecap:butt;stroke-linejoin:miter;stroke:rgb(0%,0%,0%);stroke-opacity:1;stroke-miterlimit:4;" d="M 223.691406 -149.128906 C 208.988281 -139.324219 188.332031 -125.554688 170.65625 -113.769531 " transform="matrix(1,0,0,1,4,256)"/>
<path style="fill-rule:nonzero;fill:rgb(0%,0%,0%);fill-opacity:1;stroke-width:1;stroke-linecap:butt;stroke-linejoin:miter;stroke:rgb(0%,0%,0%);stroke-opacity:1;stroke-miterlimit:4;" d="M 172.515625 -110.804688 L 162.253906 -108.171875 L 168.632812 -116.628906 Z M 172.515625 -110.804688 " transform="matrix(1,0,0,1,4,256)"/>
<path style="fill:none;stroke-width:1;stroke-linecap:butt;stroke-linejoin:miter;stroke:rgb(0%,0%,0%);stroke-opacity:1;stroke-miterlimit:4;" d="M 234.285156 -144.570312 C 230.175781 -136.355469 225.179688 -126.359375 220.589844 -117.183594 " transform="matrix(1,0,0,1,4,256)"/>
<path style="fill-rule:nonzero;fill:rgb(0%,0%,0%);fill-opacity:1;stroke-width:1;stroke-linecap:butt;stroke-linejoin:miter;stroke:rgb(0%,0%,0%);stroke-opacity:1;stroke-miterlimit:4;" d="M 223.613281 -115.398438 L 216.011719 -108.019531 L 217.351562 -118.53125 Z M 223.613281 -115.398438 " transform="matrix(1,0,0,1,4,256)"/>
<path style="fill:none;stroke-width:1;stroke-linecap:butt;stroke-linejoin:miter;stroke:rgb(0%,0%,0%);stroke-opacity:1;stroke-miterlimit:4;" d="M 251.714844 -144.570312 C 255.824219 -136.355469 260.820312 -126.359375 265.410156 -117.183594 " transform="matrix(1,0,0,1,4,256)"/>
<path style="fill-rule:nonzero;fill:rgb(0%,0%,0%);fill-opacity:1;stroke-width:1;stroke-linecap:butt;stroke-linejoin:miter;stroke:rgb(0%,0%,0%);stroke-opacity:1;stroke-miterlimit:4;" d="M 268.648438 -118.53125 L 269.988281 -108.019531 L 262.386719 -115.398438 Z M 268.648438 -118.53125 " transform="matrix(1,0,0,1,4,256)"/>
<path style="fill:none;stroke-width:1;stroke-linecap:butt;stroke-linejoin:miter;stroke:rgb(0%,0%,0%);stroke-opacity:1;stroke-miterlimit:4;" d="M 378 -90 C 378 -80.058594 365.910156 -72 351 -72 C 336.089844 -72 324 -80.058594 324 -90 C 324 -99.941406 336.089844 -108 351 -108 C 365.910156 -108 378 -99.941406 378 -90 Z M 378 -90 " transform="matrix(1,0,0,1,4,256)"/>
<path style=" stroke:none;fill-rule:nonzero;fill:rgb(0%,0%,0%);fill-opacity:1;" d="M 348.28125 160.15625 L 349.640625 160.15625 L 349.640625 169.003906 L 354.726562 169.003906 L 354.726562 170.199219 L 348.28125 170.199219 Z M 358.636719 170.464844 C 357.480469 170.464844 356.640625 170.148438 356.117188 169.511719 C 355.59375 168.875 355.335938 168.101562 355.335938 167.191406 L 356.621094 167.191406 C 356.675781 167.824219 356.792969 168.285156 356.976562 168.574219 C 357.296875 169.089844 357.871094 169.34375 358.703125 169.34375 C 359.351562 169.34375 359.871094 169.171875 360.265625 168.824219 C 360.65625 168.480469 360.851562 168.03125 360.851562 167.484375 C 360.851562 166.808594 360.644531 166.339844 360.234375 166.070312 C 359.820312 165.800781 359.246094 165.667969 358.515625 165.667969 C 358.433594 165.667969 358.347656 165.667969 358.265625 165.671875 C 358.179688 165.671875 358.09375 165.675781 358.007812 165.679688 L 358.007812 164.59375 C 358.136719 164.605469 358.242188 164.617188 358.328125 164.621094 C 358.414062 164.625 358.507812 164.628906 358.609375 164.628906 C 359.070312 164.628906 359.449219 164.554688 359.742188 164.410156 C 360.261719 164.152344 360.523438 163.699219 360.523438 163.042969 C 360.523438 162.554688 360.351562 162.179688 360.003906 161.914062 C 359.65625 161.648438 359.253906 161.519531 358.792969 161.519531 C 357.972656 161.519531 357.40625 161.792969 357.09375 162.339844 C 356.917969 162.640625 356.820312 163.066406 356.796875 163.621094 L 355.582031 163.621094 C 355.582031 162.894531 355.726562 162.273438 356.019531 161.761719 C 356.519531 160.851562 357.402344 160.394531 358.664062 160.394531 C 359.664062 160.394531 360.433594 160.617188 360.980469 161.0625 C 361.527344 161.507812 361.800781 162.152344 361.800781 162.996094 C 361.800781 163.597656 361.640625 164.082031 361.316406 164.457031 C 361.117188 164.691406 360.855469 164.871094 360.539062 165.003906 C 361.054688 165.144531 361.453125 165.417969 361.742188 165.820312 C 362.03125 166.222656 362.179688 166.71875 362.179688 167.300781 C 362.179688 168.234375 361.871094 168.996094 361.253906 169.582031 C 360.640625 170.171875 359.765625 170.464844 358.636719 170.464844 Z M 347.214844 159.417969 "/>
<path style="fill:none;stroke-width:1;stroke-linecap:butt;stroke-linejoin:miter;stroke:rgb(0%,0%,0%);stroke-opacity:1;stroke-miterlimit:4;" d="M 262.308594 -149.128906 C 279.355469 -137.761719 304.402344 -121.066406 323.535156 -108.308594 " transform="matrix(1,0,0,1,4,256)"/>
<path style="fill-rule:nonzero;fill:rgb(0%,0%,0%);fill-opacity:1;stroke-width:1;stroke-linecap:butt;stroke-linejoin:miter;stroke:rgb(0%,0%,0%);stroke-opacity:1;stroke-miterlimit:4;" d="M 325.480469 -111.21875 L 331.859375 -102.761719 L 321.597656 -105.394531 Z M 325.480469 -111.21875 " transform="matrix(1,0,0,1,4,256)"/>
<path style="fill:none;stroke-width:1;stroke-linecap:butt;stroke-linejoin:miter;stroke:rgb(0%,0%,0%);stroke-opacity:1;stroke-miterlimit:4;" d="M 335.730469 -74.730469 C 326.628906 -65.628906 314.847656 -53.847656 304.378906 -43.378906 " transform="matrix(1,0,0,1,4,256)"/>
<path style="fill-rule:nonzero;fill:rgb(0%,0%,0%);fill-opacity:1;stroke-width:1;stroke-linecap:butt;stroke-linejoin:miter;stroke:rgb(0%,0%,0%);stroke-opacity:1;stroke-miterlimit:4;" d="M 306.59375 -40.644531 L 297.046875 -36.046875 L 301.644531 -45.59375 Z M 306.59375 -40.644531 " transform="matrix(1,0,0,1,4,256)"/>
<path style="fill:none;stroke-width:1;stroke-linecap:butt;stroke-linejoin:miter;stroke:rgb(0%,0%,0%);stroke-opacity:1;stroke-miterlimit:4;" d="M 351 -71.832031 C 351 -64.132812 351 -54.972656 351 -46.417969 " transform="matrix(1,0,0,1,4,256)"/>
<path style="fill-rule:nonzero;fill:rgb(0%,0%,0%);fill-opacity:1;stroke-width:1;stroke-linecap:butt;stroke-linejoin:miter;stroke:rgb(0%,0%,0%);stroke-opacity:1;stroke-miterlimit:4;" d="M 354.5 -46.414062 L 351 -36.414062 L 347.5 -46.414062 Z M 354.5 -46.414062 " transform="matrix(1,0,0,1,4,256)"/>
<path style="fill:none;stroke-width:1;stroke-linecap:butt;stroke-linejoin:miter;stroke:rgb(0%,0%,0%);stroke-opacity:1;stroke-miterlimit:4;" d="M 366.269531 -74.730469 C 375.371094 -65.628906 387.152344 -53.847656 397.621094 -43.378906 " transform="matrix(1,0,0,1,4,256)"/>
<path style="fill-rule:nonzero;fill:rgb(0%,0%,0%);fill-opacity:1;stroke-width:1;stroke-linecap:butt;stroke-linejoin:miter;stroke:rgb(0%,0%,0%);stroke-opacity:1;stroke-miterlimit:4;" d="M 400.355469 -45.59375 L 404.953125 -36.046875 L 395.40625 -40.644531 Z M 400.355469 -45.59375 " transform="matrix(1,0,0,1,4,256)"/>
</g>
</svg>
