<?xml version="1.0" encoding="UTF-8"?>
<svg xmlns="http://www.w3.org/2000/svg" xmlns:xlink="http://www.w3.org/1999/xlink" width="152pt" height="44pt" viewBox="0 0 152 44" version="1.1">
<g id="surface755">
<rect x="0" y="0" width="152" height="44" style="fill:rgb(100%,100%,100%);fill-opacity:1;stroke:none;"/>
<path style="fill:none;stroke-width:1;stroke-linecap:butt;stroke-linejoin:miter;stroke:rgb(0%,0%,0%);stroke-opacity:1;stroke-miterlimit:4;" d="M 54 -18 C 54 -8.058594 41.910156 0 27 0 C 12.089844 0 0 -8.058594 0 -18 C 0 -27.941406 12.089844 -36 27 -36 C 41.910156 -36 54 -27.941406 54 -18 Z M 54 -18 " transform="matrix(1,0,0,1,4,40)"/>
<path style=" stroke:none;fill-rule:nonzero;fill:rgb(0%,0%,0%);fill-opacity:1;" d="M 24.28125 16.15625 L 25.640625 16.15625 L 25.640625 25.003906 L 30.726562 25.003906 L 30.726562 26.199219 L 24.28125 26.199219 Z M 32.339844 19.269531 L 32.339844 18.324219 C 33.226562 18.238281 33.847656 18.09375 34.199219 17.890625 C 34.550781 17.6875 34.8125 17.207031 34.984375 16.449219 L 35.957031 16.449219 L 35.957031 26.199219 L 34.644531 26.199219 L 34.644531 19.269531 Z M 23.214844 15.417969 "/>
<path style="fill:none;stroke-width:1;stroke-linecap:butt;stroke-linejoin:miter;stroke:rgb(0%,0%,0%);stroke-opacity:1;stroke-miterlimit:4;" d="M 144 -18 C 144 -8.058594 131.910156 0 117 0 C 102.089844 0 90 -8.058594 90 -18 C 90 -27.941406 102.089844 -36 117 -36 C 131.910156 -36 144 -27.941406 144 -18 Z M 144 -18 " transform="matrix(1,0,0,1,4,40)"/>
<path style=" stroke:none;fill-rule:nonzero;fill:rgb(0%,0%,0%);fill-opacity:1;" d="M 114.28125 16.15625 L 115.640625 16.15625 L 115.640625 25.003906 L 120.726562 25.003906 L 120.726562 26.199219 L 114.28125 26.199219 Z M 121.4375 26.199219 C 121.484375 25.355469 121.65625 24.621094 121.960938 23.996094 C 122.265625 23.371094 122.855469 22.804688 123.734375 22.296875 L 125.046875 21.535156 C 125.632812 21.195312 126.046875 20.902344 126.285156 20.660156 C 126.65625 20.285156 126.84375 19.851562 126.84375 19.363281 C 126.84375 18.792969 126.671875 18.339844 126.332031 18.007812 C 125.992188 17.671875 125.535156 17.503906 124.964844 17.503906 C 124.121094 17.503906 123.539062 17.824219 123.214844 18.460938 C 123.042969 18.800781 122.945312 19.277344 122.929688 19.882812 L 121.675781 19.882812 C 121.691406 19.03125 121.847656 18.335938 122.148438 17.796875 C 122.679688 16.847656 123.621094 16.375 124.972656 16.375 C 126.09375 16.375 126.910156 16.679688 127.429688 17.285156 C 127.945312 17.890625 128.203125 18.566406 128.203125 19.308594 C 128.203125 20.09375 127.929688 20.761719 127.378906 21.316406 C 127.058594 21.640625 126.488281 22.035156 125.664062 22.496094 L 124.726562 23.011719 C 124.28125 23.257812 123.929688 23.496094 123.671875 23.71875 C 123.21875 24.113281 122.929688 24.554688 122.8125 25.035156 L 128.15625 25.035156 L 128.15625 26.199219 Z M 113.214844 15.417969 "/>
<path style="fill:none;stroke-width:1;stroke-linecap:butt;stroke-linejoin:miter;stroke:rgb(0%,0%,0%);stroke-opacity:1;stroke-miterlimit:4;" d="M 54.003906 -18 C 62.027344 -18 70.964844 -18 79.53125 -18 " transform="matrix(1,0,0,1,4,40)"/>
<path style="fill-rule:nonzero;fill:rgb(0%,0%,0%);fill-opacity:1;stroke-width:1;stroke-linecap:butt;stroke-linejoin:miter;stroke:rgb(0%,0%,0%);stroke-opacity:1;stroke-miterlimit:4;" d="M 79.707031 -21.5 L 89.703125 -18 L 79.703125 -14.5 Z M 79.707031 -21.5 " transform="matrix(1,0,0,1,4,40)"/>
</g>
</svg>
