<?xml version="1.0" encoding="UTF-8"?>
<svg xmlns="http://www.w3.org/2000/svg" xmlns:xlink="http://www.w3.org/1999/xlink" width="638pt" height="116pt" viewBox="0 0 638 116" version="1.1">
<g id="surface707">
<rect x="0" y="0" width="638" height="116" style="fill:rgb(100%,100%,100%);fill-opacity:1;stroke:none;"/>
<path style="fill:none;stroke-width:1;stroke-linecap:butt;stroke-linejoin:miter;stroke:rgb(0%,0%,0%);stroke-opacity:1;stroke-miterlimit:4;" d="M 54 -36 L 0 -36 L 0 0 L 54 0 Z M 54 -36 " transform="matrix(1,0,0,1,4,112)"/>
<path style=" stroke:none;fill-rule:nonzero;fill:rgb(0%,0%,0%);fill-opacity:1;" d="M 23.808594 90.878906 L 25.402344 90.878906 L 27.085938 93.457031 L 28.785156 90.878906 L 30.285156 90.910156 L 27.816406 94.445312 L 30.394531 98.199219 L 28.820312 98.199219 L 27.003906 95.449219 L 25.238281 98.199219 L 23.679688 98.199219 L 26.257812 94.445312 Z M 31.945312 91.269531 L 31.945312 90.324219 C 32.832031 90.238281 33.453125 90.09375 33.804688 89.890625 C 34.15625 89.6875 34.417969 89.207031 34.589844 88.449219 L 35.5625 88.449219 L 35.5625 98.199219 L 34.25 98.199219 L 34.25 91.269531 Z M 23.605469 87.417969 "/>
<path style="fill:none;stroke-width:1;stroke-linecap:butt;stroke-linejoin:miter;stroke:rgb(0%,0%,0%);stroke-opacity:1;stroke-miterlimit:4;" d="M 126 -36 L 72 -36 L 72 0 L 126 0 Z M 126 -36 " transform="matrix(1,0,0,1,4,112)"/>
<path style=" stroke:none;fill-rule:nonzero;fill:rgb(0%,0%,0%);fill-opacity:1;" d="M 95.808594 90.878906 L 97.402344 90.878906 L 99.085938 93.457031 L 100.785156 90.878906 L 102.285156 90.910156 L 99.816406 94.445312 L 102.394531 98.199219 L 100.820312 98.199219 L 99.003906 95.449219 L 97.238281 98.199219 L 95.679688 98.199219 L 98.257812 94.445312 Z M 103.042969 98.199219 C 103.089844 97.355469 103.261719 96.621094 103.566406 95.996094 C 103.871094 95.371094 104.460938 94.804688 105.339844 94.296875 L 106.652344 93.535156 C 107.238281 93.195312 107.652344 92.902344 107.890625 92.660156 C 108.261719 92.285156 108.449219 91.851562 108.449219 91.363281 C 108.449219 90.792969 108.277344 90.339844 107.9375 90.007812 C 107.597656 89.671875 107.140625 89.503906 106.570312 89.503906 C 105.726562 89.503906 105.144531 89.824219 104.820312 90.460938 C 104.648438 90.800781 104.550781 91.277344 104.535156 91.882812 L 103.28125 91.882812 C 103.296875 91.03125 103.453125 90.335938 103.753906 89.796875 C 104.285156 88.847656 105.226562 88.375 106.578125 88.375 C 107.699219 88.375 108.515625 88.679688 109.035156 89.285156 C 109.550781 89.890625 109.808594 90.566406 109.808594 91.308594 C 109.808594 92.09375 109.535156 92.761719 108.984375 93.316406 C 108.664062 93.640625 108.09375 94.035156 107.269531 94.496094 L 106.332031 95.011719 C 105.886719 95.257812 105.535156 95.496094 105.277344 95.71875 C 104.824219 96.113281 104.535156 96.554688 104.417969 97.035156 L 109.761719 97.035156 L 109.761719 98.199219 Z M 95.605469 87.417969 "/>
<path style="fill:none;stroke-width:1;stroke-linecap:butt;stroke-linejoin:miter;stroke:rgb(0%,0%,0%);stroke-opacity:1;stroke-miterlimit:4;" d="M 198 -36 L 144 -36 L 144 0 L 198 0 Z M 198 -36 " transform="matrix(1,0,0,1,4,112)"/>
<path style=" stroke:none;fill-rule:nonzero;fill:rgb(0%,0%,0%);fill-opacity:1;" d="M 167.808594 90.878906 L 169.402344 90.878906 L 171.085938 93.457031 L 172.785156 90.878906 L 174.285156 90.910156 L 171.816406 94.445312 L 174.394531 98.199219 L 172.820312 98.199219 L 171.003906 95.449219 L 169.238281 98.199219 L 167.679688 98.199219 L 170.257812 94.445312 Z M 178.242188 98.464844 C 177.085938 98.464844 176.246094 98.148438 175.722656 97.511719 C 175.199219 96.875 174.941406 96.101562 174.941406 95.191406 L 176.226562 95.191406 C 176.28125 95.824219 176.398438 96.285156 176.582031 96.574219 C 176.902344 97.089844 177.476562 97.34375 178.308594 97.34375 C 178.957031 97.34375 179.476562 97.171875 179.871094 96.824219 C 180.261719 96.480469 180.457031 96.03125 180.457031 95.484375 C 180.457031 94.808594 180.25 94.339844 179.839844 94.070312 C 179.425781 93.800781 178.851562 93.667969 178.121094 93.667969 C 178.039062 93.667969 177.953125 93.667969 177.871094 93.671875 C 177.785156 93.671875 177.699219 93.675781 177.613281 93.679688 L 177.613281 92.59375 C 177.742188 92.605469 177.847656 92.617188 177.933594 92.621094 C 178.019531 92.625 178.113281 92.628906 178.214844 92.628906 C 178.675781 92.628906 179.054688 92.554688 179.347656 92.410156 C 179.867188 92.152344 180.128906 91.699219 180.128906 91.042969 C 180.128906 90.554688 179.957031 90.179688 179.609375 89.914062 C 179.261719 89.648438 178.859375 89.519531 178.398438 89.519531 C 177.578125 89.519531 177.011719 89.792969 176.699219 90.339844 C 176.523438 90.640625 176.425781 91.066406 176.402344 91.621094 L 175.1875 91.621094 C 175.1875 90.894531 175.332031 90.273438 175.625 89.761719 C 176.125 88.851562 177.007812 88.394531 178.269531 88.394531 C 179.269531 88.394531 180.039062 88.617188 180.585938 89.0625 C 181.132812 89.507812 181.40625 90.152344 181.40625 90.996094 C 181.40625 91.597656 181.246094 92.082031 180.921875 92.457031 C 180.722656 92.691406 180.460938 92.871094 180.144531 93.003906 C 180.660156 93.144531 181.058594 93.417969 181.347656 93.820312 C 181.636719 94.222656 181.785156 94.71875 181.785156 95.300781 C 181.785156 96.234375 181.476562 96.996094 180.859375 97.582031 C 180.246094 98.171875 179.371094 98.464844 178.242188 98.464844 Z M 167.605469 87.417969 "/>
<path style="fill:none;stroke-width:1;stroke-linecap:butt;stroke-linejoin:miter;stroke:rgb(0%,0%,0%);stroke-opacity:1;stroke-miterlimit:4;" d="M 270 -36 L 216 -36 L 216 0 L 270 0 Z M 270 -36 " transform="matrix(1,0,0,1,4,112)"/>
<path style=" stroke:none;fill-rule:nonzero;fill:rgb(0%,0%,0%);fill-opacity:1;" d="M 245.082031 90.878906 L 246.441406 90.878906 C 246.269531 91.347656 245.882812 92.417969 245.285156 94.089844 C 244.839844 95.347656 244.464844 96.375 244.164062 97.167969 C 243.453125 99.035156 242.953125 100.175781 242.660156 100.585938 C 242.371094 100.996094 241.867188 101.199219 241.15625 101.199219 C 240.984375 101.199219 240.851562 101.191406 240.757812 101.179688 C 240.664062 101.167969 240.550781 101.140625 240.410156 101.105469 L 240.410156 99.984375 C 240.625 100.042969 240.78125 100.078125 240.878906 100.09375 C 240.972656 100.105469 241.058594 100.113281 241.128906 100.113281 C 241.355469 100.113281 241.523438 100.074219 241.632812 100 C 241.738281 99.925781 241.828125 99.832031 241.902344 99.722656 C 241.925781 99.6875 242.007812 99.5 242.148438 99.164062 C 242.289062 98.824219 242.390625 98.574219 242.457031 98.410156 L 239.75 90.878906 L 241.144531 90.878906 L 243.105469 96.839844 Z M 247.945312 91.269531 L 247.945312 90.324219 C 248.832031 90.238281 249.453125 90.09375 249.804688 89.890625 C 250.15625 89.6875 250.417969 89.207031 250.589844 88.449219 L 251.5625 88.449219 L 251.5625 98.199219 L 250.25 98.199219 L 250.25 91.269531 Z M 239.605469 87.417969 "/>
<path style="fill:none;stroke-width:1;stroke-linecap:butt;stroke-linejoin:miter;stroke:rgb(0%,0%,0%);stroke-opacity:1;stroke-miterlimit:4;" d="M 342 -36 L 288 -36 L 288 0 L 342 0 Z M 342 -36 " transform="matrix(1,0,0,1,4,112)"/>
<path style=" stroke:none;fill-rule:nonzero;fill:rgb(0%,0%,0%);fill-opacity:1;" d="M 317.082031 90.878906 L 318.441406 90.878906 C 318.269531 91.347656 317.882812 92.417969 317.285156 94.089844 C 316.839844 95.347656 316.464844 96.375 316.164062 97.167969 C 315.453125 99.035156 314.953125 100.175781 314.660156 100.585938 C 314.371094 100.996094 313.867188 101.199219 313.15625 101.199219 C 312.984375 101.199219 312.851562 101.191406 312.757812 101.179688 C 312.664062 101.167969 312.550781 101.140625 312.410156 101.105469 L 312.410156 99.984375 C 312.625 100.042969 312.78125 100.078125 312.878906 100.09375 C 312.972656 100.105469 313.058594 100.113281 313.128906 100.113281 C 313.355469 100.113281 313.523438 100.074219 313.632812 100 C 313.738281 99.925781 313.828125 99.832031 313.902344 99.722656 C 313.925781 99.6875 314.007812 99.5 314.148438 99.164062 C 314.289062 98.824219 314.390625 98.574219 314.457031 98.410156 L 311.75 90.878906 L 313.144531 90.878906 L 315.105469 96.839844 Z M 319.042969 98.199219 C 319.089844 97.355469 319.261719 96.621094 319.566406 95.996094 C 319.871094 95.371094 320.460938 94.804688 321.339844 94.296875 L 322.652344 93.535156 C 323.238281 93.195312 323.652344 92.902344 323.890625 92.660156 C 324.261719 92.285156 324.449219 91.851562 324.449219 91.363281 C 324.449219 90.792969 324.277344 90.339844 323.9375 90.007812 C 323.597656 89.671875 323.140625 89.503906 322.570312 89.503906 C 321.726562 89.503906 321.144531 89.824219 320.820312 90.460938 C 320.648438 90.800781 320.550781 91.277344 320.535156 91.882812 L 319.28125 91.882812 C 319.296875 91.03125 319.453125 90.335938 319.753906 89.796875 C 320.285156 88.847656 321.226562 88.375 322.578125 88.375 C 323.699219 88.375 324.515625 88.679688 325.035156 89.285156 C 325.550781 89.890625 325.808594 90.566406 325.808594 91.308594 C 325.808594 92.09375 325.535156 92.761719 324.984375 93.316406 C 324.664062 93.640625 324.09375 94.035156 323.269531 94.496094 L 322.332031 95.011719 C 321.886719 95.257812 321.535156 95.496094 321.277344 95.71875 C 320.824219 96.113281 320.535156 96.554688 320.417969 97.035156 L 325.761719 97.035156 L 325.761719 98.199219 Z M 311.605469 87.417969 "/>
<path style="fill:none;stroke-width:1;stroke-linecap:butt;stroke-linejoin:miter;stroke:rgb(0%,0%,0%);stroke-opacity:1;stroke-miterlimit:4;" d="M 414 -36 L 360 -36 L 360 0 L 414 0 Z M 414 -36 " transform="matrix(1,0,0,1,4,112)"/>
<path style=" stroke:none;fill-rule:nonzero;fill:rgb(0%,0%,0%);fill-opacity:1;" d="M 389.082031 90.878906 L 390.441406 90.878906 C 390.269531 91.347656 389.882812 92.417969 389.285156 94.089844 C 388.839844 95.347656 388.464844 96.375 388.164062 97.167969 C 387.453125 99.035156 386.953125 100.175781 386.660156 100.585938 C 386.371094 100.996094 385.867188 101.199219 385.15625 101.199219 C 384.984375 101.199219 384.851562 101.191406 384.757812 101.179688 C 384.664062 101.167969 384.550781 101.140625 384.410156 101.105469 L 384.410156 99.984375 C 384.625 100.042969 384.78125 100.078125 384.878906 100.09375 C 384.972656 100.105469 385.058594 100.113281 385.128906 100.113281 C 385.355469 100.113281 385.523438 100.074219 385.632812 100 C 385.738281 99.925781 385.828125 99.832031 385.902344 99.722656 C 385.925781 99.6875 386.007812 99.5 386.148438 99.164062 C 386.289062 98.824219 386.390625 98.574219 386.457031 98.410156 L 383.75 90.878906 L 385.144531 90.878906 L 387.105469 96.839844 Z M 394.242188 98.464844 C 393.085938 98.464844 392.246094 98.148438 391.722656 97.511719 C 391.199219 96.875 390.941406 96.101562 390.941406 95.191406 L 392.226562 95.191406 C 392.28125 95.824219 392.398438 96.285156 392.582031 96.574219 C 392.902344 97.089844 393.476562 97.34375 394.308594 97.34375 C 394.957031 97.34375 395.476562 97.171875 395.871094 96.824219 C 396.261719 96.480469 396.457031 96.03125 396.457031 95.484375 C 396.457031 94.808594 396.25 94.339844 395.839844 94.070312 C 395.425781 93.800781 394.851562 93.667969 394.121094 93.667969 C 394.039062 93.667969 393.953125 93.667969 393.871094 93.671875 C 393.785156 93.671875 393.699219 93.675781 393.613281 93.679688 L 393.613281 92.59375 C 393.742188 92.605469 393.847656 92.617188 393.933594 92.621094 C 394.019531 92.625 394.113281 92.628906 394.214844 92.628906 C 394.675781 92.628906 395.054688 92.554688 395.347656 92.410156 C 395.867188 92.152344 396.128906 91.699219 396.128906 91.042969 C 396.128906 90.554688 395.957031 90.179688 395.609375 89.914062 C 395.261719 89.648438 394.859375 89.519531 394.398438 89.519531 C 393.578125 89.519531 393.011719 89.792969 392.699219 90.339844 C 392.523438 90.640625 392.425781 91.066406 392.402344 91.621094 L 391.1875 91.621094 C 391.1875 90.894531 391.332031 90.273438 391.625 89.761719 C 392.125 88.851562 393.007812 88.394531 394.269531 88.394531 C 395.269531 88.394531 396.039062 88.617188 396.585938 89.0625 C 397.132812 89.507812 397.40625 90.152344 397.40625 90.996094 C 397.40625 91.597656 397.246094 92.082031 396.921875 92.457031 C 396.722656 92.691406 396.460938 92.871094 396.144531 93.003906 C 396.660156 93.144531 397.058594 93.417969 397.347656 93.820312 C 397.636719 94.222656 397.785156 94.71875 397.785156 95.300781 C 397.785156 96.234375 397.476562 96.996094 396.859375 97.582031 C 396.246094 98.171875 395.371094 98.464844 394.242188 98.464844 Z M 383.605469 87.417969 "/>
<path style="fill:none;stroke-width:1;stroke-linecap:butt;stroke-linejoin:miter;stroke:rgb(0%,0%,0%);stroke-opacity:1;stroke-miterlimit:4;" d="M 486 -36 L 432 -36 L 432 0 L 486 0 Z M 486 -36 " transform="matrix(1,0,0,1,4,112)"/>
<path style=" stroke:none;fill-rule:nonzero;fill:rgb(0%,0%,0%);fill-opacity:1;" d="M 455.960938 97.230469 L 460.300781 91.980469 L 456.28125 91.980469 L 456.28125 90.878906 L 461.957031 90.878906 L 461.957031 91.882812 L 457.644531 97.097656 L 462.085938 97.097656 L 462.085938 98.199219 L 455.960938 98.199219 Z M 463.945312 91.269531 L 463.945312 90.324219 C 464.832031 90.238281 465.453125 90.09375 465.804688 89.890625 C 466.15625 89.6875 466.417969 89.207031 466.589844 88.449219 L 467.5625 88.449219 L 467.5625 98.199219 L 466.25 98.199219 L 466.25 91.269531 Z M 455.605469 87.417969 "/>
<path style="fill:none;stroke-width:1;stroke-linecap:butt;stroke-linejoin:miter;stroke:rgb(0%,0%,0%);stroke-opacity:1;stroke-miterlimit:4;" d="M 558 -36 L 504 -36 L 504 0 L 558 0 Z M 558 -36 " transform="matrix(1,0,0,1,4,112)"/>
<path style=" stroke:none;fill-rule:nonzero;fill:rgb(0%,0%,0%);fill-opacity:1;" d="M 527.960938 97.230469 L 532.300781 91.980469 L 528.28125 91.980469 L 528.28125 90.878906 L 533.957031 90.878906 L 533.957031 91.882812 L 529.644531 97.097656 L 534.085938 97.097656 L 534.085938 98.199219 L 527.960938 98.199219 Z M 535.042969 98.199219 C 535.089844 97.355469 535.261719 96.621094 535.566406 95.996094 C 535.871094 95.371094 536.460938 94.804688 537.339844 94.296875 L 538.652344 93.535156 C 539.238281 93.195312 539.652344 92.902344 539.890625 92.660156 C 540.261719 92.285156 540.449219 91.851562 540.449219 91.363281 C 540.449219 90.792969 540.277344 90.339844 539.9375 90.007812 C 539.597656 89.671875 539.140625 89.503906 538.570312 89.503906 C 537.726562 89.503906 537.144531 89.824219 536.820312 90.460938 C 536.648438 90.800781 536.550781 91.277344 536.535156 91.882812 L 535.28125 91.882812 C 535.296875 91.03125 535.453125 90.335938 535.753906 89.796875 C 536.285156 88.847656 537.226562 88.375 538.578125 88.375 C 539.699219 88.375 540.515625 88.679688 541.035156 89.285156 C 541.550781 89.890625 541.808594 90.566406 541.808594 91.308594 C 541.808594 92.09375 541.535156 92.761719 540.984375 93.316406 C 540.664062 93.640625 540.09375 94.035156 539.269531 94.496094 L 538.332031 95.011719 C 537.886719 95.257812 537.535156 95.496094 537.277344 95.71875 C 536.824219 96.113281 536.535156 96.554688 536.417969 97.035156 L 541.761719 97.035156 L 541.761719 98.199219 Z M 527.605469 87.417969 "/>
<path style="fill:none;stroke-width:1;stroke-linecap:butt;stroke-linejoin:miter;stroke:rgb(0%,0%,0%);stroke-opacity:1;stroke-miterlimit:4;" d="M 630 -36 L 576 -36 L 576 0 L 630 0 Z M 630 -36 " transform="matrix(1,0,0,1,4,112)"/>
<path style=" stroke:none;fill-rule:nonzero;fill:rgb(0%,0%,0%);fill-opacity:1;" d="M 599.960938 97.230469 L 604.300781 91.980469 L 600.28125 91.980469 L 600.28125 90.878906 L 605.957031 90.878906 L 605.957031 91.882812 L 601.644531 97.097656 L 606.085938 97.097656 L 606.085938 98.199219 L 599.960938 98.199219 Z M 610.242188 98.464844 C 609.085938 98.464844 608.246094 98.148438 607.722656 97.511719 C 607.199219 96.875 606.941406 96.101562 606.941406 95.191406 L 608.226562 95.191406 C 608.28125 95.824219 608.398438 96.285156 608.582031 96.574219 C 608.902344 97.089844 609.476562 97.34375 610.308594 97.34375 C 610.957031 97.34375 611.476562 97.171875 611.871094 96.824219 C 612.261719 96.480469 612.457031 96.03125 612.457031 95.484375 C 612.457031 94.808594 612.25 94.339844 611.839844 94.070312 C 611.425781 93.800781 610.851562 93.667969 610.121094 93.667969 C 610.039062 93.667969 609.953125 93.667969 609.871094 93.671875 C 609.785156 93.671875 609.699219 93.675781 609.613281 93.679688 L 609.613281 92.59375 C 609.742188 92.605469 609.847656 92.617188 609.933594 92.621094 C 610.019531 92.625 610.113281 92.628906 610.214844 92.628906 C 610.675781 92.628906 611.054688 92.554688 611.347656 92.410156 C 611.867188 92.152344 612.128906 91.699219 612.128906 91.042969 C 612.128906 90.554688 611.957031 90.179688 611.609375 89.914062 C 611.261719 89.648438 610.859375 89.519531 610.398438 89.519531 C 609.578125 89.519531 609.011719 89.792969 608.699219 90.339844 C 608.523438 90.640625 608.425781 91.066406 608.402344 91.621094 L 607.1875 91.621094 C 607.1875 90.894531 607.332031 90.273438 607.625 89.761719 C 608.125 88.851562 609.007812 88.394531 610.269531 88.394531 C 611.269531 88.394531 612.039062 88.617188 612.585938 89.0625 C 613.132812 89.507812 613.40625 90.152344 613.40625 90.996094 C 613.40625 91.597656 613.246094 92.082031 612.921875 92.457031 C 612.722656 92.691406 612.460938 92.871094 612.144531 93.003906 C 612.660156 93.144531 613.058594 93.417969 613.347656 93.820312 C 613.636719 94.222656 613.785156 94.71875 613.785156 95.300781 C 613.785156 96.234375 613.476562 96.996094 612.859375 97.582031 C 612.246094 98.171875 611.371094 98.464844 610.242188 98.464844 Z M 599.605469 87.417969 "/>
<path style="fill:none;stroke-width:1;stroke-linecap:butt;stroke-linejoin:miter;stroke:rgb(0%,0%,0%);stroke-opacity:1;stroke-miterlimit:4;" d="M 126 -90 C 126 -80.058594 113.910156 -72 99 -72 C 84.089844 -72 72 -80.058594 72 -90 C 72 -99.941406 84.089844 -108 99 -108 C 113.910156 -108 126 -99.941406 126 -90 Z M 126 -90 " transform="matrix(1,0,0,1,4,112)"/>
<path style=" stroke:none;fill-rule:nonzero;fill:rgb(0%,0%,0%);fill-opacity:1;" d="M 96.28125 16.15625 L 97.640625 16.15625 L 97.640625 25.003906 L 102.726562 25.003906 L 102.726562 26.199219 L 96.28125 26.199219 Z M 104.339844 19.269531 L 104.339844 18.324219 C 105.226562 18.238281 105.847656 18.09375 106.199219 17.890625 C 106.550781 17.6875 106.8125 17.207031 106.984375 16.449219 L 107.957031 16.449219 L 107.957031 26.199219 L 106.644531 26.199219 L 106.644531 19.269531 Z M 95.214844 15.417969 "/>
<path style="fill:none;stroke-width:1;stroke-linecap:butt;stroke-linejoin:miter;stroke:rgb(0%,0%,0%);stroke-opacity:1;stroke-miterlimit:4;" d="M 83.730469 -74.730469 C 74.628906 -65.628906 62.847656 -53.847656 52.378906 -43.378906 " transform="matrix(1,0,0,1,4,112)"/>
<path style="fill-rule:nonzero;fill:rgb(0%,0%,0%);fill-opacity:1;stroke-width:1;stroke-linecap:butt;stroke-linejoin:miter;stroke:rgb(0%,0%,0%);stroke-opacity:1;stroke-miterlimit:4;" d="M 54.59375 -40.644531 L 45.046875 -36.046875 L 49.644531 -45.59375 Z M 54.59375 -40.644531 " transform="matrix(1,0,0,1,4,112)"/>
<path style="fill:none;stroke-width:1;stroke-linecap:butt;stroke-linejoin:miter;stroke:rgb(0%,0%,0%);stroke-opacity:1;stroke-miterlimit:4;" d="M 99 -71.832031 C 99 -64.132812 99 -54.972656 99 -46.417969 " transform="matrix(1,0,0,1,4,112)"/>
<path style="fill-rule:nonzero;fill:rgb(0%,0%,0%);fill-opacity:1;stroke-width:1;stroke-linecap:butt;stroke-linejoin:miter;stroke:rgb(0%,0%,0%);stroke-opacity:1;stroke-miterlimit:4;" d="M 102.5 -46.414062 L 99 -36.414062 L 95.5 -46.414062 Z M 102.5 -46.414062 " transform="matrix(1,0,0,1,4,112)"/>
<path style="fill:none;stroke-width:1;stroke-linecap:butt;stroke-linejoin:miter;stroke:rgb(0%,0%,0%);stroke-opacity:1;stroke-miterlimit:4;" d="M 114.269531 -74.730469 C 123.371094 -65.628906 135.152344 -53.847656 145.621094 -43.378906 " transform="matrix(1,0,0,1,4,112)"/>
<path style="fill-rule:nonzero;fill:rgb(0%,0%,0%);fill-opacity:1;stroke-width:1;stroke-linecap:butt;stroke-linejoin:miter;stroke:rgb(0%,0%,0%);stroke-opacity:1;stroke-miterlimit:4;" d="M 148.355469 -45.59375 L 152.953125 -36.046875 L 143.40625 -40.644531 Z M 148.355469 -45.59375 " transform="matrix(1,0,0,1,4,112)"/>
<path style="fill:none;stroke-width:1;stroke-linecap:butt;stroke-linejoin:miter;stroke:rgb(0%,0%,0%);stroke-opacity:1;stroke-miterlimit:4;" d="M 342 -90 C 342 -80.058594 329.910156 -72 315 -72 C 300.089844 -72 288 -80.058594 288 -90 C 288 -99.941406 300.089844 -108 315 -108 C 329.910156 -108 342 -99.941406 342 -90 Z M 342 -90 " transform="matrix(1,0,0,1,4,112)"/>
<path style=" stroke:none;fill-rule:nonzero;fill:rgb(0%,0%,0%);fill-opacity:1;" d="M 312.28125 16.15625 L 313.640625 16.15625 L 313.640625 25.003906 L 318.726562 25.003906 L 318.726562 26.199219 L 312.28125 26.199219 Z M 319.4375 26.199219 C 319.484375 25.355469 319.65625 24.621094 319.960938 23.996094 C 320.265625 23.371094 320.855469 22.804688 321.734375 22.296875 L 323.046875 21.535156 C 323.632812 21.195312 324.046875 20.902344 324.285156 20.660156 C 324.65625 20.285156 324.84375 19.851562 324.84375 19.363281 C 324.84375 18.792969 324.671875 18.339844 324.332031 18.007812 C 323.992188 17.671875 323.535156 17.503906 322.964844 17.503906 C 322.121094 17.503906 321.539062 17.824219 321.214844 18.460938 C 321.042969 18.800781 320.945312 19.277344 320.929688 19.882812 L 319.675781 19.882812 C 319.691406 19.03125 319.847656 18.335938 320.148438 17.796875 C 320.679688 16.847656 321.621094 16.375 322.972656 16.375 C 324.09375 16.375 324.910156 16.679688 325.429688 17.285156 C 325.945312 17.890625 326.203125 18.566406 326.203125 19.308594 C 326.203125 20.09375 325.929688 20.761719 325.378906 21.316406 C 325.058594 21.640625 324.488281 22.035156 323.664062 22.496094 L 322.726562 23.011719 C 322.28125 23.257812 321.929688 23.496094 321.671875 23.71875 C 321.21875 24.113281 320.929688 24.554688 320.8125 25.035156 L 326.15625 25.035156 L 326.15625 26.199219 Z M 311.214844 15.417969 "/>
<path style="fill:none;stroke-width:1;stroke-linecap:butt;stroke-linejoin:miter;stroke:rgb(0%,0%,0%);stroke-opacity:1;stroke-miterlimit:4;" d="M 299.730469 -74.730469 C 290.628906 -65.628906 278.847656 -53.847656 268.378906 -43.378906 " transform="matrix(1,0,0,1,4,112)"/>
<path style="fill-rule:nonzero;fill:rgb(0%,0%,0%);fill-opacity:1;stroke-width:1;stroke-linecap:butt;stroke-linejoin:miter;stroke:rgb(0%,0%,0%);stroke-opacity:1;stroke-miterlimit:4;" d="M 270.59375 -40.644531 L 261.046875 -36.046875 L 265.644531 -45.59375 Z M 270.59375 -40.644531 " transform="matrix(1,0,0,1,4,112)"/>
<path style="fill:none;stroke-width:1;stroke-linecap:butt;stroke-linejoin:miter;stroke:rgb(0%,0%,0%);stroke-opacity:1;stroke-miterlimit:4;" d="M 315 -71.832031 C 315 -64.132812 315 -54.972656 315 -46.417969 " transform="matrix(1,0,0,1,4,112)"/>
<path style="fill-rule:nonzero;fill:rgb(0%,0%,0%);fill-opacity:1;stroke-width:1;stroke-linecap:butt;stroke-linejoin:miter;stroke:rgb(0%,0%,0%);stroke-opacity:1;stroke-miterlimit:4;" d="M 318.5 -46.414062 L 315 -36.414062 L 311.5 -46.414062 Z M 318.5 -46.414062 " transform="matrix(1,0,0,1,4,112)"/>
<path style="fill:none;stroke-width:1;stroke-linecap:butt;stroke-linejoin:miter;stroke:rgb(0%,0%,0%);stroke-opacity:1;stroke-miterlimit:4;" d="M 330.269531 -74.730469 C 339.371094 -65.628906 351.152344 -53.847656 361.621094 -43.378906 " transform="matrix(1,0,0,1,4,112)"/>
<path style="fill-rule:nonzero;fill:rgb(0%,0%,0%);fill-opacity:1;stroke-width:1;stroke-linecap:butt;stroke-linejoin:miter;stroke:rgb(0%,0%,0%);stroke-opacity:1;stroke-miterlimit:4;" d="M 364.355469 -45.59375 L 368.953125 -36.046875 L 359.40625 -40.644531 Z M 364.355469 -45.59375 " transform="matrix(1,0,0,1,4,112)"/>
<path style="fill:none;stroke-width:1;stroke-linecap:butt;stroke-linejoin:miter;stroke:rgb(0%,0%,0%);stroke-opacity:1;stroke-miterlimit:4;" d="M 558 -90 C 558 -80.058594 545.910156 -72 531 -72 C 516.089844 -72 504 -80.058594 504 -90 C 504 -99.941406 516.089844 -108 531 -108 C 545.910156 -108 558 -99.941406 558 -90 Z M 558 -90 " transform="matrix(1,0,0,1,4,112)"/>
<path style=" stroke:none;fill-rule:nonzero;fill:rgb(0%,0%,0%);fill-opacity:1;" d="M 528.28125 16.15625 L 529.640625 16.15625 L 529.640625 25.003906 L 534.726562 25.003906 L 534.726562 26.199219 L 528.28125 26.199219 Z M 538.636719 26.464844 C 537.480469 26.464844 536.640625 26.148438 536.117188 25.511719 C 535.59375 24.875 535.335938 24.101562 535.335938 23.191406 L 536.621094 23.191406 C 536.675781 23.824219 536.792969 24.285156 536.976562 24.574219 C 537.296875 25.089844 537.871094 25.34375 538.703125 25.34375 C 539.351562 25.34375 539.871094 25.171875 540.265625 24.824219 C 540.65625 24.480469 540.851562 24.03125 540.851562 23.484375 C 540.851562 22.808594 540.644531 22.339844 540.234375 22.070312 C 539.820312 21.800781 539.246094 21.667969 538.515625 21.667969 C 538.433594 21.667969 538.347656 21.667969 538.265625 21.671875 C 538.179688 21.671875 538.09375 21.675781 538.007812 21.679688 L 538.007812 20.59375 C 538.136719 20.605469 538.242188 20.617188 538.328125 20.621094 C 538.414062 20.625 538.507812 20.628906 538.609375 20.628906 C 539.070312 20.628906 539.449219 20.554688 539.742188 20.410156 C 540.261719 20.152344 540.523438 19.699219 540.523438 19.042969 C 540.523438 18.554688 540.351562 18.179688 540.003906 17.914062 C 539.65625 17.648438 539.253906 17.519531 538.792969 17.519531 C 537.972656 17.519531 537.40625 17.792969 537.09375 18.339844 C 536.917969 18.640625 536.820312 19.066406 536.796875 19.621094 L 535.582031 19.621094 C 535.582031 18.894531 535.726562 18.273438 536.019531 17.761719 C 536.519531 16.851562 537.402344 16.394531 538.664062 16.394531 C 539.664062 16.394531 540.433594 16.617188 540.980469 17.0625 C 541.527344 17.507812 541.800781 18.152344 541.800781 18.996094 C 541.800781 19.597656 541.640625 20.082031 541.316406 20.457031 C 541.117188 20.691406 540.855469 20.871094 540.539062 21.003906 C 541.054688 21.144531 541.453125 21.417969 541.742188 21.820312 C 542.03125 22.222656 542.179688 22.71875 542.179688 23.300781 C 542.179688 24.234375 541.871094 24.996094 541.253906 25.582031 C 540.640625 26.171875 539.765625 26.464844 538.636719 26.464844 Z M 527.214844 15.417969 "/>
<path style="fill:none;stroke-width:1;stroke-linecap:butt;stroke-linejoin:miter;stroke:rgb(0%,0%,0%);stroke-opacity:1;stroke-miterlimit:4;" d="M 515.730469 -74.730469 C 506.628906 -65.628906 494.847656 -53.847656 484.378906 -43.378906 " transform="matrix(1,0,0,1,4,112)"/>
<path style="fill-rule:nonzero;fill:rgb(0%,0%,0%);fill-opacity:1;stroke-width:1;stroke-linecap:butt;stroke-linejoin:miter;stroke:rgb(0%,0%,0%);stroke-opacity:1;stroke-miterlimit:4;" d="M 486.59375 -40.644531 L 477.046875 -36.046875 L 481.644531 -45.59375 Z M 486.59375 -40.644531 " transform="matrix(1,0,0,1,4,112)"/>
<path style="fill:none;stroke-width:1;stroke-linecap:butt;stroke-linejoin:miter;stroke:rgb(0%,0%,0%);stroke-opacity:1;stroke-miterlimit:4;" d="M 531 -71.832031 C 531 -64.132812 531 -54.972656 531 -46.417969 " transform="matrix(1,0,0,1,4,112)"/>
<path style="fill-rule:nonzero;fill:rgb(0%,0%,0%);fill-opacity:1;stroke-width:1;stroke-linecap:butt;stroke-linejoin:miter;stroke:rgb(0%,0%,0%);stroke-opacity:1;stroke-miterlimit:4;" d="M 534.5 -46.414062 L 531 -36.414062 L 527.5 -46.414062 Z M 534.5 -46.414062 " transform="matrix(1,0,0,1,4,112)"/>
<path style="fill:none;stroke-width:1;stroke-linecap:butt;stroke-linejoin:miter;stroke:rgb(0%,0%,0%);stroke-opacity:1;stroke-miterlimit:4;" d="M 546.269531 -74.730469 C 555.371094 -65.628906 567.152344 -53.847656 577.621094 -43.378906 " transform="matrix(1,0,0,1,4,112)"/>
<path style="fill-rule:nonzero;fill:rgb(0%,0%,0%);fill-opacity:1;stroke-width:1;stroke-linecap:butt;stroke-linejoin:miter;stroke:rgb(0%,0%,0%);stroke-opacity:1;stroke-miterlimit:4;" d="M 580.355469 -45.59375 L 584.953125 -36.046875 L 575.40625 -40.644531 Z M 580.355469 -45.59375 " transform="matrix(1,0,0,1,4,112)"/>
</g>
</svg>
